<svg width="33" height="28" viewBox="0 0 33 28" fill="none" xmlns="http://www.w3.org/2000/svg">
<rect y="2.66785" width="3.77291" height="3.77291" transform="rotate(-45 0 2.66785)" fill="#3742FA" fill-opacity="0.19"/>
<rect y="10.2137" width="3.77291" height="3.77291" transform="rotate(-45 0 10.2137)" fill="#3742FA" fill-opacity="0.19"/>
<rect y="17.7595" width="3.77291" height="3.77291" transform="rotate(-45 0 17.7595)" fill="#3742FA" fill-opacity="0.19"/>
<rect y="25.3322" width="3.77291" height="3.77291" transform="rotate(-45 0 25.3322)" fill="#3742FA" fill-opacity="0.19"/>
<rect x="9.05493" y="2.66785" width="3.77291" height="3.77291" transform="rotate(-45 9.05493 2.66785)" fill="#3742FA" fill-opacity="0.19"/>
<rect x="9.05493" y="10.2137" width="3.77291" height="3.77291" transform="rotate(-45 9.05493 10.2137)" fill="#3742FA" fill-opacity="0.19"/>
<rect x="9.05493" y="17.7595" width="3.77291" height="3.77291" transform="rotate(-45 9.05493 17.7595)" fill="#3742FA" fill-opacity="0.19"/>
<rect x="9.05493" y="25.3322" width="3.77291" height="3.77291" transform="rotate(-45 9.05493 25.3322)" fill="#3742FA" fill-opacity="0.19"/>
<rect x="18.11" y="2.66785" width="3.77291" height="3.77291" transform="rotate(-45 18.11 2.66785)" fill="#3742FA" fill-opacity="0.19"/>
<rect x="18.11" y="10.2137" width="3.77291" height="3.77291" transform="rotate(-45 18.11 10.2137)" fill="#3742FA" fill-opacity="0.19"/>
<rect x="18.11" y="17.7595" width="3.77291" height="3.77291" transform="rotate(-45 18.11 17.7595)" fill="#3742FA" fill-opacity="0.19"/>
<rect x="18.11" y="25.3322" width="3.77291" height="3.77291" transform="rotate(-45 18.11 25.3322)" fill="#3742FA" fill-opacity="0.19"/>
<rect x="27.1649" y="2.66785" width="3.77291" height="3.77291" transform="rotate(-45 27.1649 2.66785)" fill="#3742FA" fill-opacity="0.19"/>
<rect x="27.1649" y="10.2137" width="3.77291" height="3.77291" transform="rotate(-45 27.1649 10.2137)" fill="#3742FA" fill-opacity="0.19"/>
<rect x="27.1649" y="17.7595" width="3.77291" height="3.77291" transform="rotate(-45 27.1649 17.7595)" fill="#3742FA" fill-opacity="0.19"/>
<rect x="27.1649" y="25.3322" width="3.77291" height="3.77291" transform="rotate(-45 27.1649 25.3322)" fill="#3742FA" fill-opacity="0.19"/>
</svg>
