<svg width="60" height="60" viewBox="0 0 60 60" fill="none" xmlns="http://www.w3.org/2000/svg">
<path d="M22.0909 17.5227C20.1341 17.5227 18.3 19.3773 17.1204 20.7614C15.9272 19.3977 14.0932 17.5227 12.15 17.5227C10.5057 17.4768 8.91008 18.0835 7.71173 19.2103C6.51338 20.3371 5.80973 21.8924 5.75452 23.5364C5.84909 25.1974 6.50544 26.777 7.61588 28.0159C10.0091 31.2546 16.0432 35.2841 16.3022 35.4546C16.5463 35.6114 16.8303 35.6947 17.1204 35.6947C17.4105 35.6947 17.6945 35.6114 17.9386 35.4546C18.1977 35.2773 24.2318 31.2477 26.6318 28.0091C27.7379 26.7681 28.3915 25.1893 28.4863 23.5296C28.4294 21.8868 27.7249 20.3332 26.5268 19.2079C25.3286 18.0825 23.734 17.4767 22.0909 17.5227ZM47.85 17.5227C45.8932 17.5227 44.0591 19.3773 42.8795 20.7614C41.6795 19.3977 39.8454 17.5227 37.9091 17.5227C36.2648 17.4768 34.6692 18.0835 33.4708 19.2103C32.2725 20.3371 31.5688 21.8924 31.5136 23.5364C31.6084 25.1961 32.262 26.7749 33.3682 28.0159C35.7682 31.2546 41.8022 35.2841 42.0613 35.4546C42.3054 35.6114 42.5894 35.6947 42.8795 35.6947C43.1696 35.6947 43.4536 35.6114 43.6977 35.4546C43.9568 35.2773 49.9909 31.2477 52.3841 28.0091C53.4945 26.7702 54.1509 25.1906 54.2454 23.5296C54.1885 21.8868 53.484 20.3332 52.2859 19.2079C51.0877 18.0825 49.4931 17.4767 47.85 17.5227Z" fill="#E8D8FF"/>
<path d="M17.1205 34.1864C17.3212 34.1864 17.5137 34.2661 17.6556 34.408C17.7976 34.55 17.8773 34.7425 17.8773 34.9432C17.8777 37.0131 18.3096 39.0601 19.1454 40.9537C19.9813 42.8473 21.2028 44.5458 22.7318 45.9409L22.9705 46.1523L23.4409 46.5614C23.5649 46.6947 23.6366 46.8683 23.643 47.0502C23.6493 47.2321 23.5899 47.4103 23.4756 47.552C23.3612 47.6936 23.1997 47.7893 23.0205 47.8215C22.8413 47.8537 22.6565 47.8203 22.5 47.7273H22.4387L21.9682 47.3182C20.205 45.7749 18.7927 43.872 17.826 41.7375C16.8593 39.6031 16.3607 37.2864 16.3637 34.9432C16.3637 34.7425 16.4434 34.55 16.5853 34.408C16.7273 34.2661 16.9198 34.1864 17.1205 34.1864Z" fill="#E8D8FF"/>
<path d="M30 32.6727C30.1884 32.6718 30.3703 32.7412 30.5103 32.8673C30.6502 32.9934 30.7381 33.1671 30.7568 33.3546V48.4909C30.7626 48.5903 30.7488 48.6899 30.7162 48.7839C30.6835 48.878 30.6326 48.9647 30.5665 49.0391C30.5003 49.1134 30.4201 49.1741 30.3305 49.2175C30.241 49.2609 30.1437 49.2862 30.0443 49.2921C29.9449 49.2979 29.8454 49.2841 29.7513 49.2514C29.6573 49.2188 29.5706 49.1679 29.4962 49.1017C29.4218 49.0356 29.3611 48.9554 29.3177 48.8658C29.2743 48.7762 29.249 48.6789 29.2432 48.5796V33.4091C29.2485 33.2119 29.3306 33.0247 29.4719 32.8871C29.6133 32.7496 29.8028 32.6727 30 32.6727Z" fill="#A68BF6"/>
<path d="M43.3909 34.1863C43.5923 34.1863 43.7855 34.2659 43.9285 34.4076C44.0715 34.5493 44.1528 34.7418 44.1546 34.9432C44.1496 37.2231 43.6692 39.4769 42.7441 41.5607C41.819 43.6445 40.4695 45.5125 38.7819 47.0454L38.5432 47.2636L38.0728 47.6727C38.0047 47.7518 37.921 47.816 37.8269 47.8612C37.7329 47.9064 37.6305 47.9316 37.5262 47.9354C37.4219 47.9391 37.318 47.9212 37.2209 47.8829C37.1239 47.8445 37.0358 47.7865 36.9623 47.7125C36.8887 47.6384 36.8313 47.55 36.7935 47.4527C36.7558 47.3554 36.7386 47.2514 36.743 47.1471C36.7474 47.0429 36.7733 46.9406 36.8191 46.8469C36.8649 46.7531 36.9296 46.6698 37.0091 46.6023L37.0773 46.5341L37.5478 46.125C39.1458 44.7288 40.4265 43.0067 41.3038 41.0745C42.1811 39.1423 42.6347 37.0448 42.6341 34.9227C42.6341 34.722 42.7139 34.5295 42.8558 34.3876C42.9977 34.2456 43.1902 34.1659 43.3909 34.1659V34.1863Z" fill="#E8D8FF"/>
<path d="M36.6272 10.7045C34.0227 10.7045 31.5954 13.1727 30 15C28.4045 13.1455 25.9841 10.6773 23.3727 10.6773C18.675 10.6773 14.85 14.2773 14.85 18.7023C14.85 21.3341 16.2136 23.1818 17.3182 24.6682C20.5159 28.9841 28.5613 34.3636 28.9091 34.5955C29.2351 34.8088 29.6172 34.9204 30.0068 34.9159C30.3944 34.9211 30.7745 34.8094 31.0977 34.5955C31.4386 34.3636 39.4909 28.9841 42.6886 24.6682C43.7863 23.1545 45.1568 21.3341 45.1568 18.7023C45.15 14.3182 41.3659 10.7045 36.6272 10.7045Z" fill="#A68BF6"/>
<path d="M11.4818 20.8091C11.575 20.7838 11.6743 20.7961 11.7584 20.8432C11.8426 20.8904 11.9049 20.9688 11.9318 21.0614C11.9451 21.1097 11.9486 21.1603 11.942 21.21C11.9354 21.2597 11.9189 21.3076 11.8935 21.3508C11.868 21.3941 11.8342 21.4317 11.7939 21.4617C11.7537 21.4916 11.7078 21.5131 11.6591 21.525C11.0122 21.6598 10.4184 21.9796 9.94996 22.4456C9.4815 22.9117 9.15858 23.5038 9.02049 24.15C9.01 24.1985 8.99 24.2444 8.96165 24.2851C8.93329 24.3258 8.89713 24.3605 8.85528 24.3872C8.81342 24.4138 8.7667 24.4319 8.71781 24.4403C8.66893 24.4488 8.61885 24.4474 8.57049 24.4364C8.47275 24.4106 8.38889 24.3478 8.3367 24.2612C8.28451 24.1747 8.2681 24.0712 8.29094 23.9727C8.45605 23.1916 8.84615 22.4758 9.41316 21.9136C9.98016 21.3514 10.6993 20.9675 11.4818 20.8091ZM22.6364 13.8273C22.7349 13.8044 22.8383 13.8209 22.9249 13.873C23.0115 13.9252 23.0743 14.0091 23.1 14.1068C23.1225 14.2036 23.1057 14.3053 23.0533 14.3896C23.0009 14.474 22.9172 14.5341 22.8205 14.5568C22.1704 14.688 21.5737 15.0085 21.1054 15.478C20.6371 15.9475 20.3182 16.5451 20.1887 17.1955C20.1776 17.2439 20.1568 17.2896 20.1275 17.3298C20.0983 17.3701 20.0612 17.4039 20.0185 17.4294C19.9758 17.4549 19.9284 17.4715 19.8792 17.4781C19.8299 17.4848 19.7798 17.4814 19.7319 17.4682C19.6841 17.457 19.6391 17.4364 19.5995 17.4077C19.5598 17.3789 19.5263 17.3424 19.5009 17.3005C19.4755 17.2586 19.4587 17.2121 19.4515 17.1636C19.4444 17.1151 19.4469 17.0657 19.4591 17.0182C19.6185 16.2338 20.0045 15.5134 20.5692 14.9462C21.134 14.3791 21.8527 13.99 22.6364 13.8273ZM49.275 20.8091C49.1819 20.7838 49.0826 20.7961 48.9985 20.8432C48.9143 20.8904 48.852 20.9688 48.825 21.0614C48.8118 21.1097 48.8083 21.1603 48.8149 21.21C48.8215 21.2597 48.838 21.3076 48.8634 21.3508C48.8888 21.3941 48.9227 21.4317 48.9629 21.4617C49.0032 21.4916 49.049 21.5131 49.0978 21.525C49.7469 21.6549 50.3433 21.9731 50.8126 22.4399C51.2819 22.9068 51.6032 23.5016 51.7364 24.15C51.7469 24.1985 51.7669 24.2444 51.7952 24.2851C51.8236 24.3258 51.8597 24.3605 51.9016 24.3872C51.9435 24.4138 51.9902 24.4319 52.0391 24.4403C52.088 24.4488 52.138 24.4474 52.1864 24.4364C52.2841 24.4106 52.368 24.3478 52.4202 24.2612C52.4724 24.1747 52.4888 24.0712 52.4659 23.9727C52.3008 23.1916 51.9107 22.4758 51.3437 21.9136C50.7767 21.3514 50.0576 20.9675 49.275 20.8091Z" fill="white"/>
<path d="M16.7454 33.7364C16.8628 33.5887 17.0311 33.4901 17.2173 33.4601C17.4036 33.43 17.5943 33.4706 17.7522 33.5738C17.9101 33.6771 18.0237 33.8356 18.0708 34.0183C18.1179 34.201 18.0951 34.3946 18.0068 34.5614L17.9522 34.6432L16.2136 36.9682C16.0918 37.1282 15.9118 37.2337 15.7126 37.2618C15.5135 37.2899 15.3113 37.2383 15.15 37.1182C15.0036 37.008 14.9023 36.8484 14.8646 36.6691C14.827 36.4898 14.8557 36.3029 14.9454 36.1432L15 36.0614L16.7454 33.7364Z" fill="#E8D8FF"/>
<path d="M17.9523 33.7364C17.8349 33.5887 17.6666 33.4901 17.4803 33.4601C17.2941 33.43 17.1033 33.4706 16.9455 33.5738C16.7876 33.6771 16.674 33.8356 16.6269 34.0183C16.5798 34.201 16.6026 34.3946 16.6909 34.5614L16.7454 34.6432L18.4909 36.9682C18.6012 37.1382 18.7745 37.2574 18.9727 37.2996C19.1709 37.3418 19.3777 37.3035 19.5477 37.1932C19.7177 37.0829 19.8369 36.9096 19.8791 36.7114C19.9213 36.5132 19.883 36.3063 19.7727 36.1364L19.7182 36.0546L17.9523 33.7364Z" fill="#E8D8FF"/>
<path d="M29.4477 32.2159C29.5715 32.058 29.7525 31.9552 29.9515 31.9296C30.1506 31.9041 30.3517 31.958 30.5113 32.0796C30.6504 32.1942 30.7439 32.3547 30.7752 32.5322C30.8064 32.7097 30.7733 32.8925 30.6818 33.0477L30.634 33.1296L28.9091 35.4546C28.7968 35.616 28.626 35.7274 28.433 35.7652C28.24 35.803 28.0399 35.7641 27.875 35.6569C27.7101 35.5496 27.5935 35.3824 27.5498 35.1906C27.5061 34.9989 27.5388 34.7976 27.6409 34.6296L27.6954 34.5477L29.4477 32.2159Z" fill="#A68BF6"/>
<path d="M29.5978 32.0455C29.7451 31.9331 29.9284 31.8787 30.1132 31.8926C30.2979 31.9064 30.4711 31.9875 30.6 32.1205L30.6614 32.1955L32.4 34.5273C32.465 34.6022 32.5145 34.6893 32.5456 34.7836C32.5767 34.8778 32.5888 34.9772 32.5812 35.0762C32.5736 35.1751 32.5464 35.2715 32.5013 35.3599C32.4562 35.4483 32.3939 35.5268 32.3182 35.5909C32.2427 35.6561 32.155 35.7057 32.0602 35.7369C31.9655 35.7681 31.8655 35.7803 31.766 35.7727C31.6665 35.7651 31.5695 35.7379 31.4806 35.6926C31.3916 35.6474 31.3125 35.585 31.2478 35.5091L31.1864 35.4545L29.4478 33.1295C29.3851 33.049 29.3392 32.9568 29.3128 32.8583C29.2864 32.7597 29.28 32.6569 29.2939 32.5558C29.3079 32.4548 29.342 32.3576 29.3942 32.2699C29.4464 32.1822 29.5156 32.1059 29.5978 32.0455Z" fill="#A68BF6"/>
<path d="M42.4977 33.7364C42.6196 33.5768 42.799 33.4711 42.9976 33.4418C43.1963 33.4125 43.3986 33.4619 43.5613 33.5796C43.707 33.6919 43.8077 33.8526 43.8452 34.0326C43.8827 34.2127 43.8546 34.4003 43.7659 34.5614L43.7113 34.6432L41.9727 36.9682C41.8509 37.1282 41.6709 37.2337 41.4717 37.2618C41.2726 37.2899 41.0704 37.2383 40.9091 37.1182C40.7598 37.0087 40.6563 36.8478 40.6185 36.6665C40.5808 36.4852 40.6114 36.2964 40.7045 36.1364L40.7591 36.0546L42.4977 33.7364Z" fill="#E8D8FF"/>
<path d="M43.7114 33.7364C43.594 33.5887 43.4257 33.4901 43.2395 33.4601C43.0533 33.43 42.8625 33.4706 42.7046 33.5738C42.5467 33.6771 42.4331 33.8356 42.386 34.0183C42.3389 34.201 42.3618 34.3946 42.45 34.5614L42.4978 34.6432L44.25 36.9682C44.3103 37.0477 44.3857 37.1144 44.4719 37.1647C44.558 37.2149 44.6532 37.2476 44.7521 37.2609C44.8509 37.2742 44.9514 37.2679 45.0478 37.2422C45.1442 37.2165 45.2345 37.1721 45.3137 37.1114C45.456 36.9997 45.5545 36.8415 45.5919 36.6645C45.6293 36.4874 45.6032 36.3029 45.5182 36.1432L45.4637 36.0614L43.7114 33.7364Z" fill="#E8D8FF"/>
</svg>
