<svg width="14" height="14" viewBox="0 0 14 14" fill="none" xmlns="http://www.w3.org/2000/svg">
<path d="M4.9627 10.8813C5.06948 10.988 5.24262 10.988 5.34942 10.8813L9.03733 7.19335C9.0886 7.14208 9.11742 7.07252 9.11742 7C9.11742 6.92748 9.0886 6.85792 9.03733 6.80665L5.34939 3.11872C5.24262 3.01194 5.06948 3.01194 4.96267 3.11872C4.85587 3.2255 4.85589 3.39864 4.96267 3.50544L8.45726 7L4.96267 10.4946C4.85589 10.6013 4.85589 10.7745 4.9627 10.8813ZM7 14C10.8598 14 14 10.8598 14 7C14 3.14018 10.8598 0 7 0C3.14018 0 0 3.14018 0 7C0 10.8598 3.14018 14 7 14ZM7 13.4531C3.44173 13.4531 0.546875 10.5583 0.546875 7C0.546875 3.44173 3.44173 0.546875 7 0.546875C10.5583 0.546875 13.4531 3.44173 13.4531 7C13.4531 10.5583 10.5583 13.4531 7 13.4531Z" fill="white"/>
</svg>
