<svg width="17" height="17" viewBox="0 0 17 17" fill="none" xmlns="http://www.w3.org/2000/svg">
<path fill-rule="evenodd" clip-rule="evenodd" d="M13.1397 9.03136C13.1192 6.88158 14.8962 5.84549 14.9764 5.79639C13.9785 4.3335 12.4217 4.13324 11.8673 4.10983C10.5438 3.97694 9.28434 4.89008 8.6124 4.89008C7.94228 4.89008 6.90468 4.13008 5.8079 4.15169C4.36374 4.17177 3.03344 4.99007 2.28991 6.28182C0.791516 8.88351 1.9069 12.7366 3.36812 14.8473C4.0813 15.8779 4.93373 17.0406 6.0515 16.9986C7.12972 16.9563 7.53569 16.3032 8.83607 16.3032C10.1375 16.3032 10.503 16.9986 11.6435 16.9771C12.8005 16.9563 13.5362 15.9244 14.245 14.8896C15.0643 13.6908 15.4017 12.5305 15.4214 12.4702C15.3964 12.4611 13.1631 11.6037 13.1397 9.03136L13.1397 9.03136Z" fill="black"/>
<path fill-rule="evenodd" clip-rule="evenodd" d="M11.0011 2.71525C11.5951 1.99528 11.9937 0.9962 11.8845 0C11.0295 0.0339671 9.99279 0.570724 9.38035 1.28845C8.82984 1.92535 8.34805 2.94239 8.47869 3.91773C9.43246 3.9919 10.4068 3.43384 11.0011 2.71525V2.71525Z" fill="#14F42B"/>
</svg>
