<svg width="30" height="30" viewBox="0 0 30 30" fill="none" xmlns="http://www.w3.org/2000/svg">
<path d="M23.628 8.5848L16.428 4.6908C15.9895 4.45344 15.4987 4.32914 15 4.32914C14.5013 4.32914 14.0105 4.45344 13.572 4.6908L6.372 8.5848C5.89632 8.84226 5.4991 9.22354 5.22237 9.68827C4.94564 10.153 4.7997 10.6839 4.8 11.2248V18.7476C4.79982 19.2886 4.94594 19.8196 5.22288 20.2843C5.49983 20.7491 5.8973 21.1303 6.3732 21.3876L13.5732 25.2816C14.0116 25.5188 14.5022 25.6429 15.0006 25.6429C15.499 25.6429 15.9896 25.5188 16.428 25.2816L23.628 21.3876C24.1037 21.1301 24.5009 20.7489 24.7776 20.2841C25.0544 19.8194 25.2003 19.2885 25.2 18.7476V11.2248C25.2003 10.6839 25.0544 10.153 24.7776 9.68827C24.5009 9.22354 24.1037 8.84226 23.628 8.5848V8.5848ZM14.148 5.7468C14.4107 5.60375 14.7051 5.5288 15.0042 5.5288C15.3033 5.5288 15.5977 5.60375 15.8604 5.7468L23.0604 9.6396C23.1236 9.67967 23.1841 9.72376 23.2416 9.7716L19.7244 11.7696L11.6328 7.1064L14.148 5.7468ZM10.3932 7.776L18.5148 12.456L15 14.4552L6.7632 9.7752C6.82072 9.72737 6.88124 9.68328 6.9444 9.6432L10.3932 7.776ZM6.9444 20.3292C6.65895 20.175 6.42049 19.9465 6.25425 19.6678C6.088 19.3892 6.00016 19.0708 6 18.7464V11.2248C6.00056 11.0667 6.02194 10.9093 6.0636 10.7568L14.4 15.4944V24.324C14.3123 24.2975 14.2269 24.2642 14.1444 24.2244L6.9444 20.3292ZM24 18.7464C24 19.0707 23.9123 19.389 23.7463 19.6676C23.5802 19.9462 23.342 20.1748 23.0568 20.3292L15.8568 24.2232C15.7739 24.2633 15.6881 24.297 15.6 24.324V15.4944L23.9364 10.7556C23.9781 10.9085 23.9994 11.0663 24 11.2248V18.7464Z" fill="black"/>
</svg>
