<svg width="30" height="30" viewBox="0 0 30 30" fill="none" xmlns="http://www.w3.org/2000/svg">
<path d="M22.2 6H20.07C20.0008 4.70208 19.4365 3.48013 18.4933 2.58585C17.55 1.69158 16.2998 1.1931 15 1.1931C13.7002 1.1931 12.45 1.69158 11.5068 2.58585C10.5635 3.48013 9.9992 4.70208 9.93 6H7.8C7.00435 6 6.24129 6.31607 5.67868 6.87868C5.11607 7.44129 4.8 8.20435 4.8 9V22.2C4.8 22.9957 5.11607 23.7587 5.67868 24.3213C6.24129 24.8839 7.00435 25.2 7.8 25.2H22.2C22.9957 25.2 23.7587 24.8839 24.3213 24.3213C24.8839 23.7587 25.2 22.9957 25.2 22.2V9C25.2 8.20435 24.8839 7.44129 24.3213 6.87868C23.7587 6.31607 22.9957 6 22.2 6ZM15 2.4C15.9796 2.40325 16.9221 2.77561 17.6393 3.44285C18.3566 4.11008 18.796 5.02316 18.87 6H11.13C11.204 5.02316 11.6434 4.11008 12.3607 3.44285C13.0779 2.77561 14.0204 2.40325 15 2.4ZM24 22.2C24 22.6774 23.8104 23.1352 23.4728 23.4728C23.1352 23.8104 22.6774 24 22.2 24H7.8C7.32261 24 6.86478 23.8104 6.52721 23.4728C6.18965 23.1352 6 22.6774 6 22.2V9C6 8.52261 6.18965 8.06478 6.52721 7.72721C6.86478 7.38965 7.32261 7.2 7.8 7.2H22.2C22.6774 7.2 23.1352 7.38965 23.4728 7.72721C23.8104 8.06478 24 8.52261 24 9V22.2Z" fill="black"/>
<path d="M17.28 14.9376C17.2831 14.6192 17.3658 14.3067 17.5204 14.0283C17.6751 13.75 17.8969 13.5148 18.1656 13.344C17.9819 13.0806 17.7353 12.8672 17.4482 12.7232C17.1611 12.5792 16.8426 12.5092 16.5216 12.5196C15.8976 12.5196 15.3924 12.9 15.0576 12.9C14.7228 12.9 14.262 12.54 13.7028 12.54C13.3999 12.5579 13.1038 12.6374 12.8327 12.7736C12.5615 12.9098 12.321 13.0998 12.1257 13.332C11.9304 13.5642 11.7845 13.8338 11.6969 14.1243C11.6092 14.4148 11.5817 14.7201 11.616 15.0216C11.6374 16.0053 11.9383 16.9626 12.4836 17.7816C12.8988 18.3708 13.2612 18.8412 13.7844 18.8412C14.3076 18.8412 14.5248 18.4968 15.1572 18.4968C15.8172 18.4968 15.9528 18.8316 16.5216 18.8316C17.0904 18.8316 17.4708 18.3156 17.8224 17.808C18.0781 17.4476 18.2704 17.0462 18.3912 16.6212C18.0605 16.4815 17.7786 16.2471 17.5809 15.9475C17.3831 15.6479 17.2785 15.2966 17.28 14.9376V14.9376ZM15.0996 12.4284C15.3187 12.4105 15.5319 12.3481 15.7261 12.2449C15.9203 12.1417 16.0913 12 16.2288 11.8284C16.4997 11.4981 16.6522 11.0866 16.662 10.6596C16.6639 10.605 16.6607 10.5504 16.6524 10.4964C16.1782 10.5381 15.7398 10.7659 15.4332 11.13C15.1563 11.4444 14.9939 11.8432 14.9724 12.2616C14.9724 12.3252 14.982 12.3888 14.982 12.4152C15.018 12.42 15.054 12.4284 15.0996 12.4284V12.4284Z" fill="black"/>
</svg>
