<svg width="126" height="126" viewBox="0 0 126 126" fill="none" xmlns="http://www.w3.org/2000/svg">
<g clip-path="url(#clip0_13_14)">
<path fill-rule="evenodd" clip-rule="evenodd" d="M38.5012 60.5376C35.2187 63.71 34.1656 68.545 35.8314 72.7952C37.3514 76.6732 42.4207 85.03 44.8805 88.9818C45.5618 90.0762 46.2331 90.9328 46.9712 91.5715C49.4433 93.7107 51.2499 94.1278 52.4834 94.0473C53.7785 93.9629 55.2102 93.2807 56.7897 91.7542C58.5287 90.0736 59.2793 87.6159 58.7757 85.2504L56.3847 74.0182L52.8311 58.6969L49.2887 57.7468C49.2887 57.7468 49.2887 57.7468 49.2887 57.7468C45.4523 56.7179 41.3574 57.7773 38.5012 60.5376ZM50.9386 50.5285C44.6688 48.9455 38.017 50.7126 33.3578 55.2155C27.9267 60.4643 26.1843 68.464 28.9405 75.4961C30.767 80.1561 36.2852 89.1789 38.5973 92.8932C39.4885 94.3251 40.6156 95.8595 42.128 97.1682C45.6107 100.182 49.2575 101.675 52.9648 101.433C56.6107 101.195 59.6075 99.3239 61.9332 97.0763C65.5071 93.6223 67.0496 88.5708 66.0148 83.7095L63.617 72.4443L63.6024 72.3786L60.933 60.87L72.3439 63.9305L72.409 63.9473L83.5857 66.7283C88.4088 67.9284 93.5099 66.5592 97.084 63.1051C99.6992 60.5776 101.697 57.2047 101.667 53.0888C101.637 49.0068 99.6165 44.9825 95.8767 41.1128C93.5038 38.6575 89.1178 35.9825 85.4889 33.9551C81.7068 31.8421 78.1668 30.1218 77.0922 29.6068C76.8418 29.4867 76.5517 29.3532 76.2316 29.2238C69.3919 26.46 61.5468 27.9725 56.2226 33.118C51.5634 37.6209 49.5705 44.2084 50.9386 50.5285ZM59.0377 52.6986L74.2287 56.7731L85.3728 59.5459C87.7196 60.1301 90.2015 59.4637 91.9405 57.7831C93.5802 56.1984 94.2764 54.6497 94.2655 53.143C94.2543 51.6021 93.4988 49.3026 90.5546 46.2563C89.0522 44.7017 85.6207 42.5068 81.879 40.4165C78.2911 38.4117 74.9075 36.767 73.8946 36.2818C73.7161 36.1962 73.5797 36.1349 73.4588 36.086C69.3257 34.416 64.5841 35.3301 61.3661 38.4401C58.51 41.2003 57.3116 45.2567 58.2091 49.126L59.0377 52.6986Z" fill="#E5E5E5" fill-opacity="0.3"/>
</g>
<defs>
<clipPath id="clip0_13_14">
<rect width="88.8159" height="88.8159" fill="white" transform="translate(0 61.7215) rotate(-44.0223)"/>
</clipPath>
</defs>
</svg>
