<svg width="232" height="313" viewBox="0 0 232 313" fill="none" xmlns="http://www.w3.org/2000/svg">
<g clip-path="url(#clip0_13_2)">
<path d="M94.9784 13.4859L-61.5758 111.054C-70.2649 116.47 -72.9293 127.948 -67.514 136.638L30.0309 293.154C35.4696 301.881 46.9484 304.545 55.6375 299.13L127.106 254.589L158.515 235.014L212.154 201.585C220.843 196.17 223.508 184.691 218.092 176.002L120.524 19.4477C115.146 10.7351 103.668 8.07069 94.9784 13.4859ZM86.1899 181.227C84.9006 179.158 82.153 178.52 80.0841 179.809L57.8912 193.641L44.3882 171.974L66.4307 158.237C67.4463 157.604 68.1288 156.604 68.4215 155.482C68.6908 154.322 68.4809 153.147 67.8479 152.131L45.6238 116.89C39.4115 106.922 42.4727 93.7337 52.4407 87.5214L85.1659 67.1262L100.052 91.0118L85.5702 100.037C78.6866 104.327 76.5891 113.364 80.8791 120.247C80.8791 120.247 80.8791 120.247 80.9025 120.285L91.6818 137.33C92.9711 139.398 95.6953 139.999 97.7641 138.709L120.822 124.339L134.325 146.005L111.418 160.282C110.402 160.915 109.719 161.915 109.427 163.037C109.157 164.197 109.367 165.372 110 166.388L150.041 229.798L126.156 244.684L86.1899 181.227ZM210.607 180.667C213.444 185.218 212.055 191.202 207.503 194.039L157.588 225.147L119.905 165.437L142.775 151.184C144.844 149.895 145.482 147.147 144.192 145.078L126.001 115.889C124.712 113.82 121.964 113.182 119.895 114.472L96.8371 128.842L88.4397 115.535C86.7518 112.827 87.588 109.225 90.2963 107.537L108.54 96.1672C110.608 94.8778 111.246 92.1302 109.957 90.0614L90.3823 58.6528C89.0929 56.5839 86.3453 55.9462 84.2765 57.2355L47.7898 79.9749C33.6841 88.7659 29.3239 107.412 38.1384 121.555L57.9807 153.058L35.9382 166.796C33.8694 168.085 33.2316 170.833 34.5209 172.901L52.7124 202.091C54.0018 204.16 56.7494 204.797 58.8182 203.508L81.0488 189.653L118.694 249.387L50.9866 291.583C46.4352 294.42 40.4515 293.031 37.615 288.48L-59.9534 131.926C-62.8276 127.398 -61.4387 121.414 -56.8872 118.577L99.6293 21.0324C104.181 18.1959 110.164 19.5848 113.001 24.1362L210.569 180.69L210.607 180.667Z" fill="#E5E5E5" fill-opacity="0.3"/>
</g>
<defs>
<clipPath id="clip0_13_2">
<rect width="226.93" height="226.93" fill="white" transform="translate(-81 120.026) rotate(-31.9322)"/>
</clipPath>
</defs>
</svg>
