<svg width="206" height="226" viewBox="0 0 206 226" fill="none" xmlns="http://www.w3.org/2000/svg">
<path d="M90.0579 45.4895C91.2965 37.6549 90.9752 29.6528 89.1125 21.9427C87.2499 14.2326 83.8825 6.96638 79.2038 0.561316C66.3466 10.1022 57.7519 24.312 55.2715 40.1292C54.0862 47.7077 54.4337 55.447 56.2933 62.8889C58.1529 70.3307 61.4868 77.3238 66.0976 83.454C72.7363 79.3882 78.3503 73.8493 82.5052 67.266C86.66 60.6827 89.2443 53.2316 90.0579 45.4895V45.4895ZM173.609 113.937C168.11 104.95 164.991 94.7092 164.548 84.182C164.104 73.6549 166.35 63.1882 171.074 53.77C161.93 49.8364 151.995 48.0875 142.057 48.662C132.119 49.2365 122.451 52.1186 113.821 57.0797C94.4585 66.5681 85.4487 89.5316 75.7664 95.573C66.0841 101.614 45.9575 99.7485 30.938 109.444C21.2277 115.957 13.3711 124.875 8.13449 135.329C2.89786 145.783 0.460024 157.415 1.05874 169.092C2.80084 217.599 51.2011 261.141 89.7109 277.144C107.851 285.436 129.488 294.139 144.522 283.947C159.557 273.756 158.968 261.644 176.816 250.507C194.664 239.371 206.116 245.515 221.062 235.703C236.009 225.89 237.934 205.079 238.925 184.849C239.472 170.27 237.907 155.689 234.279 141.558C222.574 143.384 210.59 141.741 199.808 136.833C189.026 131.924 179.918 123.964 173.609 113.937V113.937Z" fill="#E5E5E5" fill-opacity="0.3"/>
</svg>
