<svg width="238" height="192" viewBox="0 0 238 192" fill="none" xmlns="http://www.w3.org/2000/svg">
<path d="M235.567 49.1809C235.072 46.4322 232.679 44.433 229.886 44.4358H121.187C118.002 44.4337 115.418 47.0148 115.416 50.1996C115.416 50.2024 115.416 50.2045 115.416 50.2066V94.8517C115.414 98.0372 117.995 100.62 121.18 100.623C121.182 100.623 121.184 100.623 121.187 100.623H175.841C172.421 110.557 165.821 119.086 157.063 124.889C146.364 131.717 133.877 135.212 121.187 134.932C94.1358 134.654 70.3121 117.061 62.0863 91.29L62.0771 91.2752C57.6567 78.2486 57.6567 64.1272 62.0771 51.1006L62.0863 51.0858C70.3135 25.315 94.1365 7.72281 121.187 7.44385C136.103 7.20293 150.516 12.8294 161.324 23.1108C163.589 25.284 167.178 25.2438 169.394 23.0206L202.497 -10.0828C204.752 -12.337 204.753 -15.9917 202.499 -18.2466C202.45 -18.2952 202.401 -18.3431 202.351 -18.3896C180.374 -38.9799 151.302 -50.2997 121.187 -49.994C75.3355 -50.132 33.3695 -24.2612 12.894 16.7651C-4.29801 51.0104 -4.29801 91.3654 12.894 125.611C33.3709 166.638 75.3341 192.511 121.187 192.381C150.712 193.154 179.418 182.618 201.431 162.927L201.483 162.896C225.592 139.64 238.767 107.291 237.765 73.8084C237.763 65.5502 237.027 57.3089 235.567 49.1809ZM121.187 -38.4523C146.314 -38.7129 170.711 -30.0088 189.998 -13.903L165.066 11.0281C152.644 1.0355 137.128 -4.31338 121.187 -4.09781C92.0887 -3.89634 65.8128 13.3506 54.0535 39.9682L25.4233 17.7661C44.7083 -17.0308 81.4036 -38.5735 121.187 -38.4523ZM11.5415 71.1935C11.5119 56.4748 14.4692 41.9033 20.2344 28.3603L49.9289 51.3887C46.3172 64.3414 46.3172 78.0344 49.9289 90.9871L20.2463 114.006C14.5178 100.459 11.5584 85.9024 11.5415 71.1935ZM121.187 180.839C81.4015 180.958 44.7055 159.411 25.4233 124.61L54.0535 102.408C65.81 129.027 92.088 146.276 121.188 146.474C134.732 146.68 148.091 143.309 159.916 136.701L161.175 137.68L188.454 158.872C169.207 173.678 145.463 181.432 121.187 180.839ZM197.155 151.016L169.71 129.702C179.782 120.949 186.576 109.027 188.972 95.8999C189.555 92.7707 187.491 89.7613 184.362 89.1781C184.013 89.1133 183.658 89.0801 183.303 89.0808H126.958V55.9775H224.972C225.806 61.8842 226.225 67.8425 226.223 73.8084C227.054 102.364 216.612 130.099 197.155 151.016Z" fill="#E5E5E5" fill-opacity="0.3"/>
</svg>
