<svg width="750" height="450" viewBox="0 0 750 450" fill="none" xmlns="http://www.w3.org/2000/svg">
<path d="M0 0H750V450H0V0Z" fill="white"/>
<path d="M513.956 231.563C490.052 215.64 461.802 211.344 435.892 217.323C442.574 192.228 432.997 164.585 410.174 149.383C381.499 130.283 342.774 138.025 323.691 166.674C319.782 172.546 316.894 179.037 315.151 185.873C256.608 149.013 179.031 165.307 140.486 223.176C101.316 281.982 117.279 361.43 176.141 400.637C235.003 439.844 314.467 423.958 353.636 365.152C357.489 359.358 360.872 353.266 363.752 346.932C370.609 367.144 383.934 385.332 403.083 398.087C449.11 428.745 511.251 416.322 541.88 370.338C572.508 324.355 559.983 262.221 513.956 231.563ZM372.519 263.517C372.218 264.004 371.942 264.486 371.657 264.984C371.54 264.47 371.407 263.946 371.29 263.432C371.698 263.475 372.106 263.517 372.519 263.517V263.517Z" fill="url(#paint0_linear_15_23)"/>
<path d="M525.33 181.007C502.875 195.233 469.861 183.413 469.861 183.413C469.861 183.413 473.276 148.535 495.746 134.325C518.201 120.1 551.201 131.904 551.201 131.904C551.201 131.904 547.786 166.782 525.33 181.007Z" fill="url(#paint1_linear_15_23)"/>
<path d="M470.159 410.8C469.739 410.634 469.397 410.316 469.2 409.909C469.004 409.502 468.969 409.036 469.101 408.604C469.233 408.172 469.524 407.806 469.914 407.578C470.304 407.35 470.766 407.278 471.207 407.376C475.555 408.372 479.931 409.245 484.328 409.994C484.56 410.034 484.782 410.119 484.981 410.245C485.18 410.371 485.352 410.534 485.488 410.727C485.623 410.919 485.72 411.136 485.772 411.366C485.823 411.595 485.829 411.833 485.789 412.065C485.707 412.533 485.444 412.95 485.056 413.224C484.668 413.499 484.188 413.609 483.719 413.53C479.254 412.768 474.811 411.883 470.395 410.875C470.316 410.852 470.236 410.83 470.159 410.8V410.8ZM496.709 415.382C496.302 415.224 495.966 414.923 495.765 414.535C495.564 414.147 495.512 413.7 495.617 413.276C495.722 412.852 495.978 412.481 496.338 412.233C496.697 411.984 497.134 411.875 497.568 411.926C502.01 412.455 506.485 412.876 510.877 413.177C511.35 413.211 511.791 413.43 512.104 413.788C512.416 414.145 512.574 414.611 512.544 415.085C512.512 415.56 512.293 416.002 511.936 416.315C511.578 416.629 511.111 416.788 510.636 416.757C506.179 416.456 501.643 416.027 497.141 415.491C496.994 415.469 496.849 415.433 496.709 415.382V415.382ZM523.557 417.176C523.166 417.024 522.84 416.739 522.637 416.371C522.434 416.004 522.367 415.577 522.446 415.164C522.526 414.752 522.748 414.381 523.073 414.115C523.399 413.85 523.807 413.707 524.227 413.712C528.677 413.769 533.128 413.693 537.574 413.483C537.809 413.472 538.044 413.507 538.265 413.587C538.487 413.666 538.69 413.789 538.864 413.947C539.038 414.106 539.179 414.297 539.279 414.51C539.379 414.723 539.435 414.954 539.446 415.189C539.492 416.179 538.729 417.019 537.74 417.067C533.31 417.282 528.749 417.358 524.178 417.294C523.965 417.296 523.754 417.256 523.557 417.176V417.176ZM550.421 415.875C550.114 415.758 549.846 415.558 549.646 415.298C549.445 415.038 549.32 414.728 549.285 414.402C549.258 414.168 549.278 413.931 549.343 413.705C549.408 413.479 549.516 413.268 549.663 413.083C549.81 412.899 549.991 412.746 550.197 412.632C550.403 412.518 550.629 412.445 550.863 412.419C555.344 411.903 559.773 411.229 564.03 410.418C564.261 410.373 564.499 410.374 564.73 410.422C564.961 410.469 565.18 410.562 565.374 410.695C565.569 410.828 565.735 410.998 565.864 411.195C565.992 411.393 566.08 411.614 566.122 411.846C566.212 412.313 566.112 412.796 565.846 413.19C565.579 413.584 565.167 413.855 564.7 413.945C560.249 414.792 555.768 415.475 551.267 415.99C550.98 416.015 550.691 415.975 550.421 415.875V415.875ZM576.812 410.783C576.55 410.684 576.315 410.524 576.127 410.316C575.939 410.109 575.802 409.859 575.729 409.589C575.602 409.13 575.663 408.639 575.897 408.224C576.131 407.809 576.52 407.504 576.979 407.375C581.243 406.183 585.449 404.791 589.582 403.204C590.026 403.035 590.519 403.048 590.953 403.242C591.387 403.435 591.727 403.793 591.898 404.236C592.25 405.159 591.788 406.196 590.864 406.557C586.626 408.184 582.314 409.61 577.941 410.83C577.57 410.938 577.173 410.922 576.812 410.783V410.783ZM601.844 401.096C601.429 400.938 601.089 400.63 600.891 400.233C600.676 399.808 600.638 399.315 600.786 398.863C600.934 398.41 601.255 398.035 601.68 397.819C605.61 395.813 609.424 393.588 613.105 391.155C613.301 391.025 613.521 390.934 613.752 390.889C613.984 390.844 614.221 390.845 614.452 390.891C614.683 390.938 614.903 391.03 615.098 391.161C615.293 391.293 615.461 391.462 615.591 391.658C615.853 392.055 615.947 392.541 615.853 393.007C615.758 393.474 615.482 393.884 615.086 394.148C611.292 396.659 607.36 398.954 603.308 401.022C603.082 401.134 602.835 401.198 602.584 401.211C602.332 401.224 602.08 401.184 601.844 401.096V401.096ZM624.167 386.256C623.877 386.144 623.621 385.958 623.425 385.717C623.229 385.475 623.098 385.187 623.047 384.881C622.995 384.574 623.024 384.259 623.131 383.967C623.238 383.675 623.419 383.416 623.656 383.215C627.008 380.357 630.183 377.299 633.165 374.057C633.324 373.884 633.516 373.743 633.73 373.644C633.943 373.545 634.174 373.489 634.409 373.479C634.645 373.469 634.879 373.505 635.101 373.586C635.322 373.667 635.525 373.791 635.698 373.95C635.871 374.109 636.012 374.301 636.111 374.515C636.21 374.728 636.266 374.959 636.276 375.194C636.286 375.43 636.25 375.664 636.169 375.886C636.088 376.107 635.964 376.31 635.805 376.483C632.725 379.835 629.443 382.995 625.978 385.946C625.448 386.386 624.754 386.481 624.167 386.256ZM642.309 366.543C642.053 366.445 641.823 366.289 641.636 366.087C641.45 365.886 641.312 365.644 641.234 365.381C641.156 365.118 641.139 364.841 641.185 364.57C641.231 364.3 641.338 364.043 641.499 363.821C644.073 360.242 646.446 356.524 648.608 352.682C648.723 352.476 648.877 352.295 649.062 352.149C649.248 352.003 649.46 351.896 649.687 351.833C649.914 351.769 650.152 351.752 650.386 351.781C650.62 351.81 650.845 351.886 651.05 352.003C651.255 352.119 651.436 352.274 651.582 352.46C651.727 352.645 651.835 352.858 651.898 353.085C651.961 353.312 651.979 353.55 651.951 353.784C651.922 354.018 651.848 354.245 651.732 354.45C649.504 358.41 647.058 362.243 644.404 365.931C644.168 366.246 643.837 366.477 643.459 366.587C643.081 366.697 642.677 366.682 642.309 366.543ZM655.661 343.258L655.542 343.212C655.328 343.113 655.136 342.973 654.977 342.799C654.818 342.626 654.694 342.422 654.614 342.201C654.533 341.98 654.497 341.745 654.507 341.51C654.518 341.274 654.574 341.043 654.674 340.83C656.54 336.811 658.229 332.712 659.735 328.545C659.81 328.318 659.93 328.109 660.088 327.93C660.245 327.75 660.437 327.604 660.652 327.499C660.866 327.395 661.1 327.335 661.338 327.322C661.577 327.309 661.815 327.344 662.04 327.425C662.265 327.506 662.471 327.63 662.647 327.792C662.823 327.954 662.964 328.149 663.064 328.366C663.163 328.583 663.218 328.818 663.225 329.057C663.232 329.296 663.191 329.533 663.105 329.756C662.766 330.703 662.403 331.672 662.035 332.632C660.771 335.915 659.398 339.155 657.919 342.347C657.726 342.755 657.386 343.074 656.968 343.243C656.55 343.412 656.083 343.417 655.661 343.258ZM664.643 317.936C664.238 317.779 663.904 317.48 663.702 317.095C663.5 316.711 663.444 316.266 663.544 315.843C664.6 311.434 665.356 307.054 665.788 302.832C665.836 302.359 666.07 301.925 666.437 301.625C666.805 301.324 667.277 301.182 667.75 301.229C667.984 301.253 668.211 301.324 668.418 301.436C668.625 301.548 668.808 301.7 668.956 301.883C669.104 302.066 669.215 302.276 669.281 302.502C669.348 302.727 669.37 302.964 669.345 303.198C668.892 307.582 668.11 312.112 667.019 316.677C666.908 317.139 666.618 317.539 666.213 317.787C665.808 318.036 665.32 318.114 664.858 318.003C664.793 317.985 664.713 317.963 664.643 317.936V317.936ZM667.269 291.264C666.947 291.139 666.668 290.924 666.465 290.646C666.262 290.367 666.143 290.035 666.123 289.691C665.868 285.23 665.22 280.874 664.186 276.749C664.07 276.288 664.141 275.799 664.385 275.391C664.629 274.982 665.025 274.688 665.486 274.571C665.714 274.513 665.951 274.501 666.184 274.535C666.417 274.569 666.64 274.649 666.842 274.769C667.044 274.89 667.22 275.049 667.36 275.238C667.501 275.427 667.602 275.642 667.659 275.87C668.747 280.209 669.431 284.787 669.702 289.479C669.716 289.714 669.683 289.95 669.605 290.172C669.528 290.394 669.407 290.599 669.25 290.775C669.093 290.951 668.904 291.094 668.691 291.197C668.479 291.299 668.249 291.359 668.014 291.372C667.75 291.392 667.5 291.352 667.269 291.264V291.264ZM613.144 268.286C612.719 268.123 612.372 267.803 612.175 267.393C611.977 266.982 611.944 266.512 612.081 266.078C612.223 265.624 612.539 265.244 612.961 265.023C613.382 264.802 613.875 264.757 614.329 264.899C618.295 266.145 622.688 266.8 627.031 266.793C627.5 266.805 627.946 266.999 628.273 267.335C628.6 267.671 628.783 268.122 628.782 268.591C628.782 269.06 628.597 269.51 628.269 269.845C627.941 270.18 627.495 270.374 627.026 270.384C622.323 270.39 617.561 269.673 613.248 268.326C613.216 268.306 613.172 268.297 613.144 268.286ZM601.464 261.865C601.252 261.782 601.056 261.66 600.887 261.507C596.485 257.401 594.767 252.507 596.06 247.731C596.184 247.273 596.484 246.882 596.896 246.645C597.307 246.408 597.795 246.344 598.254 246.466C598.481 246.528 598.694 246.634 598.88 246.778C599.066 246.922 599.222 247.101 599.339 247.306C599.456 247.51 599.531 247.736 599.561 247.969C599.59 248.203 599.573 248.44 599.511 248.667C598.323 253.066 600.927 256.652 603.319 258.887C603.623 259.169 603.819 259.549 603.874 259.96C603.929 260.371 603.839 260.789 603.619 261.141C603.4 261.493 603.065 261.758 602.672 261.89C602.278 262.022 601.851 262.013 601.464 261.865V261.865ZM639.618 268.25C639.364 268.154 639.136 268.001 638.951 267.803C638.765 267.605 638.628 267.367 638.548 267.108C638.407 266.654 638.452 266.162 638.672 265.741C638.892 265.32 639.27 265.002 639.723 264.858C643.824 263.575 647.689 261.633 651.166 259.109C651.356 258.97 651.572 258.87 651.801 258.815C652.03 258.76 652.267 258.751 652.5 258.787C652.733 258.824 652.956 258.907 653.156 259.03C653.357 259.153 653.531 259.315 653.669 259.506C653.807 259.697 653.907 259.913 653.962 260.142C654.017 260.372 654.026 260.609 653.989 260.842C653.952 261.075 653.869 261.298 653.746 261.499C653.622 261.7 653.461 261.875 653.27 262.013C649.48 264.768 645.265 266.885 640.793 268.282C640.398 268.412 639.982 268.389 639.618 268.25ZM660.671 265.388C660.251 265.227 659.907 264.915 659.707 264.512C657.787 260.616 655.413 256.96 652.636 253.621C652.485 253.44 652.371 253.232 652.301 253.007C652.231 252.782 652.206 252.546 652.227 252.311C652.249 252.077 652.316 251.849 652.426 251.641C652.535 251.432 652.685 251.247 652.866 251.097C653.046 250.946 653.255 250.833 653.479 250.763C653.703 250.692 653.939 250.667 654.173 250.688C654.407 250.709 654.634 250.776 654.843 250.885C655.051 250.994 655.235 251.143 655.386 251.323C658.34 254.882 660.867 258.774 662.916 262.921C663.355 263.805 662.996 264.889 662.106 265.327C661.636 265.549 661.119 265.56 660.671 265.388ZM605.702 239.901C605.387 239.779 605.113 239.57 604.912 239.299C604.71 239.028 604.588 238.706 604.561 238.37C604.533 238.033 604.601 237.696 604.756 237.396C604.912 237.096 605.148 236.846 605.439 236.674C609.415 234.356 614.033 233.128 619.164 233.029C619.399 233.024 619.633 233.066 619.852 233.152C620.071 233.239 620.271 233.367 620.44 233.53C620.609 233.694 620.744 233.889 620.838 234.105C620.931 234.321 620.981 234.553 620.985 234.788C620.989 235.023 620.947 235.257 620.861 235.476C620.775 235.695 620.647 235.895 620.484 236.065C620.32 236.234 620.125 236.37 619.909 236.464C619.694 236.558 619.461 236.609 619.226 236.613C614.717 236.701 610.686 237.76 607.245 239.769C607.014 239.906 606.756 239.989 606.489 240.012C606.221 240.035 605.953 239.997 605.702 239.901V239.901ZM661.029 252.755C660.881 252.696 660.741 252.621 660.61 252.53C660.419 252.391 660.258 252.215 660.136 252.013C660.013 251.812 659.932 251.588 659.896 251.354C659.86 251.121 659.871 250.883 659.927 250.654C659.984 250.425 660.085 250.209 660.225 250.019C662.665 246.687 664.757 242.859 666.435 238.648C666.61 238.211 666.95 237.86 667.381 237.67C667.812 237.481 668.301 237.468 668.741 237.635L668.762 237.643C669.203 237.819 669.557 238.164 669.744 238.601C669.932 239.037 669.938 239.531 669.762 239.972C667.967 244.467 665.732 248.562 663.11 252.138C662.879 252.455 662.55 252.686 662.174 252.798C661.798 252.909 661.396 252.894 661.029 252.755V252.755ZM643.573 244.996C643.43 244.939 643.294 244.865 643.168 244.776C639.571 242.192 635.721 240.162 631.771 238.769C631.323 238.61 630.957 238.279 630.753 237.849C630.549 237.42 630.524 236.927 630.683 236.479C630.761 236.257 630.882 236.052 631.04 235.877C631.197 235.702 631.388 235.559 631.6 235.458C631.813 235.356 632.043 235.298 632.279 235.286C632.514 235.274 632.749 235.308 632.971 235.387C637.238 236.894 641.396 239.082 645.262 241.866C646.066 242.447 646.249 243.562 645.674 244.37C645.184 245.042 644.315 245.28 643.573 244.996V244.996ZM671.188 228.069C670.795 227.917 670.468 227.632 670.264 227.263C670.061 226.894 669.994 226.464 670.076 226.051C670.871 221.968 671.408 217.553 671.667 212.942C671.695 212.467 671.909 212.022 672.264 211.705C672.618 211.387 673.084 211.223 673.559 211.248C674.034 211.276 674.478 211.49 674.795 211.845C675.112 212.2 675.274 212.666 675.248 213.141C674.982 217.918 674.426 222.487 673.593 226.732C673.503 227.199 673.231 227.611 672.837 227.877C672.443 228.144 671.959 228.243 671.492 228.153C671.388 228.136 671.286 228.108 671.188 228.069V228.069ZM672.85 201.276C672.525 201.151 672.244 200.934 672.04 200.652C671.836 200.37 671.719 200.035 671.702 199.687C671.494 195.254 671.111 190.83 670.552 186.427C670.494 185.955 670.625 185.479 670.916 185.103C671.207 184.727 671.635 184.481 672.107 184.419C672.579 184.361 673.054 184.492 673.43 184.784C673.805 185.075 674.05 185.504 674.11 185.975C674.688 190.64 675.086 195.189 675.281 199.515C675.295 199.812 675.234 200.108 675.105 200.377C674.975 200.645 674.782 200.877 674.54 201.051C674.299 201.226 674.019 201.338 673.724 201.377C673.429 201.416 673.128 201.382 672.85 201.276V201.276ZM669.323 174.648C669.052 174.545 668.81 174.377 668.618 174.159C668.427 173.942 668.291 173.681 668.222 173.399C667.166 169.124 665.838 164.921 664.245 160.816C664.072 160.372 664.082 159.878 664.273 159.442C664.465 159.006 664.821 158.663 665.265 158.49C665.484 158.404 665.718 158.362 665.953 158.367C666.189 158.371 666.421 158.422 666.637 158.517C666.852 158.611 667.047 158.748 667.21 158.918C667.372 159.088 667.5 159.288 667.585 159.508C669.236 163.759 670.611 168.112 671.703 172.539C671.781 172.857 671.77 173.19 671.672 173.502C671.575 173.814 671.394 174.094 671.149 174.311C670.904 174.528 670.604 174.674 670.283 174.733C669.961 174.793 669.629 174.763 669.323 174.648V174.648ZM659.649 149.66C659.248 149.506 658.916 149.213 658.714 148.835C656.618 144.952 654.305 141.189 651.788 137.565C651.653 137.372 651.558 137.154 651.508 136.924C651.458 136.693 651.454 136.456 651.496 136.224C651.538 135.992 651.625 135.771 651.752 135.573C651.88 135.375 652.045 135.204 652.239 135.07C653.049 134.504 654.169 134.7 654.73 135.518C657.326 139.252 659.71 143.131 661.868 147.134C661.98 147.341 662.05 147.569 662.074 147.803C662.098 148.038 662.075 148.274 662.007 148.5C661.94 148.726 661.828 148.936 661.679 149.118C661.53 149.301 661.346 149.452 661.138 149.563C660.912 149.686 660.661 149.758 660.404 149.775C660.147 149.792 659.889 149.752 659.649 149.66ZM386.428 29.919C386.091 29.7899 385.801 29.5622 385.596 29.2657C385.391 28.9692 385.279 28.6177 385.277 28.257C385.274 27.7818 385.459 27.3248 385.792 26.9855C386.125 26.6463 386.578 26.4523 387.053 26.446C390.939 26.416 395.499 26.573 400.622 26.913C400.857 26.9287 401.086 26.9906 401.297 27.095C401.508 27.1995 401.696 27.3444 401.851 27.5216C402.006 27.6988 402.124 27.9047 402.199 28.1277C402.274 28.3507 402.305 28.5862 402.289 28.821C402.257 29.2954 402.038 29.7378 401.68 30.0512C401.323 30.3646 400.856 30.5234 400.381 30.493C395.35 30.164 390.87 30.007 387.079 30.041C386.856 30.0413 386.635 29.9999 386.428 29.919V29.919ZM644.391 127.586C644.112 127.479 643.865 127.304 643.672 127.077C640.792 123.715 637.765 120.482 634.6 117.387C634.432 117.222 634.298 117.026 634.206 116.81C634.113 116.594 634.065 116.361 634.063 116.126C634.06 115.891 634.105 115.657 634.193 115.439C634.281 115.221 634.411 115.023 634.576 114.855C634.74 114.686 634.935 114.552 635.151 114.459C635.367 114.366 635.6 114.317 635.835 114.315C636.07 114.312 636.303 114.356 636.521 114.444C636.739 114.532 636.938 114.662 637.105 114.827C640.343 117.998 643.442 121.307 646.395 124.745C646.654 125.048 646.804 125.429 646.823 125.827C646.841 126.225 646.726 126.618 646.497 126.944C646.267 127.27 645.935 127.51 645.554 127.626C645.173 127.742 644.763 127.728 644.391 127.586ZM413.257 31.554C412.888 31.4121 412.576 31.152 412.37 30.8142C412.165 30.4765 412.077 30.0801 412.12 29.687C412.144 29.4527 412.215 29.2255 412.327 29.0186C412.44 28.8116 412.592 28.629 412.775 28.4812C412.959 28.3334 413.17 28.2233 413.396 28.1574C413.622 28.0915 413.859 28.0709 414.093 28.097C418.4 28.558 422.904 29.111 427.487 29.75C427.72 29.7825 427.945 29.8607 428.148 29.98C428.351 30.0994 428.528 30.2576 428.67 30.4455C428.812 30.6335 428.915 30.8476 428.974 31.0755C429.033 31.3035 429.047 31.5408 429.014 31.774C428.982 32.0075 428.904 32.2324 428.785 32.4358C428.666 32.6392 428.508 32.8171 428.32 32.9594C428.132 33.1017 427.918 33.2056 427.69 33.265C427.462 33.3245 427.224 33.3384 426.991 33.306C422.57 32.6922 418.14 32.1461 413.702 31.668C413.55 31.6486 413.4 31.6103 413.257 31.554V31.554ZM625.258 108.76C625.072 108.689 624.9 108.588 624.747 108.46C621.344 105.609 617.849 102.87 614.267 100.248C613.884 99.967 613.628 99.5456 613.555 99.0762C613.483 98.6068 613.599 98.1277 613.879 97.744C614.159 97.3606 614.579 97.104 615.048 97.0305C615.517 96.957 615.995 97.0726 616.379 97.352C620.028 100.02 623.587 102.807 627.052 105.71C627.377 105.983 627.595 106.362 627.667 106.78C627.739 107.198 627.66 107.628 627.445 107.994C627.23 108.36 626.892 108.637 626.492 108.778C626.091 108.918 625.654 108.912 625.258 108.76V108.76ZM439.886 35.217C439.471 35.0579 439.13 34.7505 438.929 34.3544C438.728 33.9583 438.681 33.5017 438.798 33.073C438.914 32.6443 439.186 32.2741 439.559 32.0341C439.933 31.7941 440.383 31.7014 440.821 31.774C445.197 32.495 449.664 33.291 454.096 34.137C454.563 34.2276 454.974 34.4991 455.241 34.8921C455.509 35.2851 455.609 35.7679 455.522 36.235C455.432 36.7021 455.161 37.1147 454.769 37.3828C454.376 37.6509 453.893 37.7527 453.425 37.666C449.037 36.8315 444.639 36.0488 440.232 35.318C440.114 35.295 439.998 35.2612 439.886 35.217V35.217ZM466.288 40.248C465.888 40.095 465.556 39.8033 465.353 39.4261C465.15 39.0489 465.089 38.6112 465.182 38.193C465.283 37.728 465.564 37.3219 465.963 37.0638C466.363 36.8056 466.849 36.7165 467.314 36.816C471.702 37.758 476.122 38.761 480.462 39.806C480.691 39.8598 480.908 39.9587 481.099 40.0969C481.29 40.235 481.452 40.4098 481.574 40.6109C481.697 40.812 481.779 41.0356 481.815 41.2685C481.851 41.5015 481.84 41.7392 481.783 41.968C481.672 42.4302 481.383 42.8294 480.977 43.0781C480.572 43.3267 480.085 43.4044 479.623 43.294C475.279 42.2523 470.924 41.2609 466.557 40.32C466.465 40.3068 466.375 40.2827 466.288 40.248ZM603.611 92.869C603.497 92.8238 603.386 92.7682 603.282 92.703C599.543 90.293 595.746 87.975 591.894 85.751C591.483 85.5133 591.182 85.1223 591.059 84.6636C590.935 84.205 590.999 83.7161 591.235 83.304C591.352 83.0994 591.509 82.9201 591.696 82.7761C591.882 82.6322 592.096 82.5266 592.323 82.4652C592.551 82.4039 592.789 82.3881 593.023 82.4188C593.256 82.4495 593.482 82.526 593.686 82.644C597.594 84.8925 601.444 87.2416 605.231 89.689C605.63 89.9474 605.91 90.3535 606.01 90.8182C606.11 91.2828 606.022 91.7682 605.765 92.168C605.539 92.5122 605.203 92.7691 604.811 92.8966C604.42 93.024 603.996 93.0143 603.611 92.869V92.869ZM492.423 46.519C492.01 46.3591 491.671 46.0527 491.47 45.6586C491.269 45.2644 491.22 44.8099 491.333 44.382C491.455 43.9229 491.753 43.5308 492.164 43.2918C492.574 43.0527 493.063 42.9863 493.522 43.107C497.866 44.2584 502.195 45.4648 506.509 46.726C506.96 46.865 507.338 47.1759 507.562 47.5915C507.785 48.0071 507.836 48.494 507.704 48.9469C507.571 49.3999 507.266 49.7824 506.853 50.0118C506.441 50.2413 505.955 50.2992 505.5 50.173C501.215 48.9235 496.914 47.7254 492.6 46.579C492.544 46.558 492.479 46.541 492.423 46.519V46.519ZM580.345 79.428C580.282 79.4048 580.219 79.3781 580.159 79.348C576.202 77.3008 572.203 75.3344 568.166 73.45C567.952 73.3505 567.76 73.2096 567.601 73.0356C567.442 72.8615 567.32 72.6577 567.24 72.4358C567.16 72.214 567.125 71.9785 567.137 71.7431C567.148 71.5076 567.207 71.2768 567.308 71.064C567.407 70.8501 567.548 70.6579 567.721 70.4986C567.895 70.3393 568.098 70.2159 568.32 70.1357C568.542 70.0555 568.777 70.0199 569.013 70.0311C569.248 70.0423 569.479 70.1001 569.692 70.201C573.77 72.1111 577.81 74.0991 581.812 76.164C582.234 76.3832 582.551 76.7606 582.695 77.2135C582.839 77.6664 582.797 78.1578 582.579 78.58C582.376 78.9712 582.036 79.274 581.624 79.4304C581.212 79.5868 580.756 79.5859 580.345 79.428V79.428ZM518.209 54.055C517.781 53.8899 517.433 53.5676 517.235 53.1542C517.038 52.7408 517.005 52.2675 517.145 51.831C517.29 51.3787 517.608 51.0023 518.03 50.7843C518.451 50.5662 518.942 50.5244 519.395 50.668C523.675 52.0417 527.937 53.4738 532.178 54.964C532.624 55.1266 532.989 55.4579 533.194 55.8867C533.399 56.3155 533.427 56.8075 533.273 57.257C533.116 57.7056 532.788 58.0737 532.359 58.2803C531.931 58.4869 531.439 58.5152 530.99 58.359C526.78 56.8761 522.549 55.4553 518.298 54.097C518.272 54.079 518.244 54.069 518.209 54.055ZM556.014 68.03L555.951 68.005C551.846 66.2621 547.711 64.5892 543.549 62.987C543.105 62.8147 542.748 62.4735 542.556 62.0382C542.363 61.603 542.351 61.1091 542.522 60.665C542.606 60.4456 542.733 60.245 542.894 60.0746C543.056 59.9042 543.25 59.7674 543.464 59.672C543.679 59.5766 543.91 59.5245 544.145 59.5187C544.38 59.5128 544.614 59.5534 544.833 59.638L544.84 59.64C549.039 61.259 553.209 62.9485 557.351 64.708C557.567 64.7998 557.764 64.9335 557.928 65.1013C558.093 65.2691 558.223 65.4677 558.311 65.6859C558.399 65.904 558.442 66.1373 558.44 66.3724C558.437 66.6075 558.389 66.8398 558.296 67.056C558.116 67.4824 557.777 67.8223 557.352 68.0039C556.926 68.1856 556.446 68.195 556.014 68.03V68.03Z" fill="#E1E4E5"/>
<path fill-rule="evenodd" clip-rule="evenodd" d="M338.151 121.02C332.997 114.888 320.782 113.815 312.794 121.733C307.635 126.848 306.788 132.669 307.812 136.729C307.862 136.929 307.907 137.131 307.946 137.335L329.439 249.68C334.437 272.574 352.622 290.65 375.833 295.628L489.163 316.936L489.193 316.942L489.266 316.956C495.151 318.123 501.428 315.72 505.083 312.096C512.598 304.646 512.598 294.018 505.083 286.569L338.809 121.733C338.579 121.505 338.359 121.267 338.151 121.02ZM286.968 125.459L204.626 207.801C185.463 226.964 185.463 256.215 204.626 275.378L334.508 405.26C338.686 409.439 345.46 409.439 349.639 405.26C349.764 405.135 349.885 405.008 350.002 404.879L359.781 414.552L367.77 408.639L414.929 412.406L420.167 406.587C424.371 410.22 430.73 410.041 434.721 406.05L503.853 336.918C498.056 338.695 491.654 339.234 485.162 337.957L371.751 316.635C371.668 316.619 371.586 316.603 371.504 316.585C340.04 309.901 315.265 285.391 308.497 254.081C308.479 253.998 308.462 253.915 308.446 253.831L286.981 141.631C285.742 136.496 285.693 130.948 286.968 125.459V125.459Z" fill="#CCCCCC"/>
<path d="M363.042 27.221L363.3 39.347L297.926 44.236L363.042 27.221V27.221Z" fill="white"/>
<path d="M361.908 52.909L353.136 61.535L300.865 43.967L361.908 52.909Z" fill="#99DE9F"/>
<path d="M297.926 44.236L392.501 63.101L370.785 37.555L297.926 44.236V44.236Z" fill="#99DE9F"/>
<path d="M363.043 27.222L297.927 44.237L350.101 9.95001L363.043 27.222V27.222ZM601.214 417.079C579.976 417.475 574.355 419.154 552.308 418.463C541.807 418.561 530.598 418.265 520.333 418.068C515.452 416.783 506.869 418.068 501.08 416.981L498.858 417.672C496.873 417.277 494.55 417.079 492.531 417.475L492.665 417.672C489.703 417.178 486.338 417.475 484.89 417.178L485.025 417.376L481.423 417.277L482.029 417.573C476.846 416.981 471.528 416.981 466.816 417.178L467.219 416.289C457.156 417.277 453.487 415.498 444.433 416.585L444.567 416.783C433.09 414.51 426.459 418.364 414.645 416.19C416.126 416.487 414.005 416.585 414.14 416.882C408.687 416.684 402.898 416.487 402.797 414.807C398.825 414.807 399.566 415.301 399.061 415.993C399.095 415.301 395.628 414.906 392.531 414.906L393.945 415.202L385.059 414.906L386.809 413.522C382.097 413.918 385.598 415.202 381.121 414.906L381.188 413.72C374.692 413.918 370.855 415.696 364.561 416.585C338.375 417.079 310.236 414.115 285.901 416.19L284.824 417.079C284.353 418.364 278.092 415.202 277.183 416.388L274.356 415.795C273.548 415.992 271.865 416.289 273.279 416.585C270.654 416.684 270.586 416.388 268.702 416.091L265.874 416.882C255.541 417.475 246.756 415.993 235.884 416.289C222.825 417.87 198.221 416.388 184.05 415.597C164.125 413.72 140.967 418.759 120.57 416.585C119.897 416.783 118.181 416.388 118.214 416.19L99.534 416.388C99.534 416.388 9.02601 416.882 77.79 406.31L77.319 406.013C87.551 405.321 93.98 405.223 101.015 406.606C102.126 404.926 109.396 406.408 111.786 405.914L111.55 405.815C117.777 407.1 124.374 404.729 130.399 405.914C130.163 405.815 130.029 405.321 128.649 405.321C133.024 405.519 139.015 405.914 139.352 404.926C149.82 405.223 164.394 404.729 171.092 406.31L170.621 406.013C174.424 407.1 175.568 406.211 179.843 406.705C180.079 406.606 180.382 406.507 180.314 406.408C184.488 407.495 192.465 406.606 195.797 407.001L195.999 406.31L204.279 406.507L201.183 406.606C202.26 408.384 207.443 405.42 213.434 406.606C219.055 406.408 224.845 410.361 230.667 409.471C233.461 410.361 228.21 408.088 232.384 408.78C232.519 407.792 230.432 408.187 231.509 407.396C235.582 407.89 238.207 406.408 243.256 407.1L243.458 406.408C250.021 407.792 255.844 405.42 260.22 406.705C266.985 407.298 264.763 404.531 271.832 405.914L274.592 404.926C277.621 404.729 276.746 406.112 280.112 405.618C279.91 405.025 284.353 405.124 282.367 404.531C289.94 403.543 297.749 405.914 307.745 404.235C309.9 405.42 314.948 404.729 316.564 405.618C316.833 405.124 326.628 405.519 321.007 404.333C320.536 404.234 319.661 404.235 319.728 404.432L319.055 403.74C324.743 402.357 329.388 404.531 335.042 404.235C333.36 404.432 331.138 404.432 332.619 404.926L337.87 404.827L336.793 404.235L344.601 403.839L343.524 404.63C347.328 404.235 348.674 402.95 352.983 404.037C354.935 404.63 349.381 405.025 353.386 405.321C358.502 404.827 366.143 404.037 372.639 403.839C372.033 404.729 373.783 404.63 375.601 404.827L375.803 404.136C382.703 405.124 378.327 402.555 385.194 403.345L384.588 402.851L386.405 404.432C392.599 405.914 389.738 402.95 396.604 404.926C393.878 404.827 395.325 406.507 398.657 406.211L397.816 405.519C399.667 405.717 400.273 406.013 401.518 405.815C400.407 405.42 400.946 404.827 403.672 404.926L401.855 404.037L407.004 405.321C410.976 404.531 417.27 405.519 418.92 404.531C418.92 404.531 427.469 404.037 429.421 405.124C427.704 404.432 432.417 404.136 431.07 403.345C433.292 404.136 439.821 404.729 442.447 403.938L441.942 403.839C451.636 402.95 458.502 405.025 467.186 403.938C466.782 404.827 471.393 404.333 470.249 405.42C479.236 406.507 486.64 403.148 489.905 406.606C494.012 406.804 494.752 405.815 496.873 405.618L495.897 405.42C503.571 405.717 505.792 405.717 511.48 405.618C514.308 405.914 514.779 407.495 519.861 407.1C518.212 406.507 520.299 406.606 522.184 406.606C520.972 406.507 520.602 406.31 523.093 405.815C523.429 406.013 524.001 406.112 524.506 406.211C524.54 406.211 524.641 406.112 524.574 406.013C527.738 406.211 527.199 406.408 525.718 406.507C525.785 406.606 525.684 406.705 525.213 406.902C528.512 406.112 534.402 407.001 534.806 405.914C544.365 406.211 551.197 407.298 559.141 407.693C560.05 407.1 558.165 406.606 555.876 406.408L561.531 406.606C561.497 405.815 558.299 406.112 556.549 406.013C563.281 404.729 570.416 407.298 578.293 406.112L579.942 406.705L580.413 406.606C580.379 406.902 582.163 407.396 583.308 407.495C584.418 406.804 583.24 405.914 587.145 405.914C590.241 405.223 595.896 406.211 599.935 406.606C597.747 406.705 598.454 407.1 599.396 407.396C601.349 407.396 602.459 406.705 603.974 407.001L604.176 406.112C603.402 407.001 609.258 407.1 609.999 407.396C611.11 406.705 606.97 406.804 606.498 406.31C614.307 406.408 610.403 406.309 618.245 406.408C622.419 407.1 617.471 407.298 619.491 408.088C623.159 408.286 626.761 408.878 631.002 408.384L629.655 409.175C636.589 409.866 640.729 409.768 645.374 408.878C696.939 415.597 656.246 418.068 656.246 418.068C635.849 420.142 625.381 417.771 601.214 417.079V417.079Z" fill="#99DE9F"/>
<path d="M575.333 218.733C570.89 221.298 565.209 219.775 562.644 215.333C560.079 210.89 561.601 205.209 566.044 202.644C570.487 200.078 576.168 201.601 578.733 206.044C581.298 210.486 579.776 216.168 575.333 218.733Z" fill="#83D39D"/>
<path d="M133 327C139.075 327 144 331.925 144 338C144 344.075 139.075 349 133 349C126.925 349 122 344.075 122 338C122 331.925 126.925 327 133 327Z" fill="#83D39D"/>
<path d="M232.489 114C228.352 114 224.999 117.353 224.999 121.49C224.999 125.627 228.352 128.98 232.489 128.98C236.626 128.98 239.979 125.627 239.979 121.49C239.979 117.353 236.626 114 232.489 114Z" fill="#E1E4E5"/>
<path d="M185.993 326.885C182.152 326.885 179.038 329.999 179.038 333.84C179.038 337.681 182.152 340.795 185.993 340.795C189.834 340.795 192.948 337.681 192.948 333.84C192.948 329.999 189.834 326.885 185.993 326.885Z" fill="#E1E4E5"/>
<path d="M88.628 211.332C84.7869 211.332 81.673 214.446 81.673 218.287C81.673 222.128 84.7869 225.242 88.628 225.242C92.4691 225.242 95.583 222.128 95.583 218.287C95.583 214.446 92.4691 211.332 88.628 211.332Z" fill="#E1E4E5"/>
<path d="M144.399 123.062C154.526 123.062 162.736 131.272 162.736 141.399C162.736 151.526 154.526 159.736 144.399 159.736C134.272 159.736 126.062 151.526 126.062 141.399C126.062 131.272 134.272 123.062 144.399 123.062Z" fill="#A0A0A0"/>
<path d="M433.363 110.863C436.731 114.231 442.191 114.231 445.559 110.863C448.927 107.495 448.927 102.035 445.559 98.667C442.191 95.2991 436.731 95.299 433.363 98.6669C429.995 102.035 429.995 107.495 433.363 110.863Z" fill="#E1E4E5"/>
<path d="M559.738 301.812C553.704 295.778 553.704 285.997 559.738 279.963C565.771 273.93 575.553 273.93 581.586 279.963C587.619 285.997 587.619 295.778 581.586 301.812C575.553 307.845 565.771 307.845 559.738 301.812Z" fill="#A0A0A0"/>
<defs>
<linearGradient id="paint0_linear_15_23" x1="144.592" y1="607.889" x2="635.036" y2="-143.788" gradientUnits="userSpaceOnUse">
<stop stop-color="white"/>
<stop offset="1" stop-color="#EEEEEE"/>
</linearGradient>
<linearGradient id="paint1_linear_15_23" x1="438.214" y1="227.165" x2="617.401" y2="52.2191" gradientUnits="userSpaceOnUse">
<stop stop-color="white"/>
<stop offset="1" stop-color="#EEEEEE"/>
</linearGradient>
</defs>
</svg>
