<svg width="900" height="600" viewBox="0 0 900 600" fill="none" xmlns="http://www.w3.org/2000/svg">
<g id="9 1">
<g id="Group">
<path id="Vector" d="M0 0H900V600H0V0Z" fill="white"/>
<path id="Vector_2" d="M603.956 320.563C580.052 304.64 551.802 300.344 525.892 306.323C532.574 281.228 522.997 253.585 500.174 238.383C471.499 219.283 432.774 227.025 413.691 255.674C409.782 261.546 406.894 268.037 405.151 274.873C346.608 238.013 269.031 254.307 230.486 312.176C191.316 370.982 207.279 450.43 266.141 489.637C325.003 528.844 404.467 512.958 443.636 454.152C447.489 448.358 450.872 442.265 453.752 435.932C460.609 456.144 473.934 474.332 493.083 487.087C539.11 517.745 601.251 505.322 631.88 459.338C662.508 413.355 649.983 351.221 603.956 320.563ZM462.519 352.517C462.218 353.004 461.942 353.486 461.657 353.984C461.54 353.47 461.407 352.946 461.29 352.432C461.698 352.475 462.106 352.517 462.519 352.517V352.517Z" fill="url(#paint0_linear_15_22)"/>
<path id="Vector_3" d="M615.33 270.007C592.875 284.233 559.861 272.413 559.861 272.413C559.861 272.413 563.276 237.535 585.746 223.325C608.201 209.1 641.201 220.904 641.201 220.904C641.201 220.904 637.786 255.782 615.33 270.007Z" fill="url(#paint1_linear_15_22)"/>
<path id="Vector_4" d="M560.159 499.8C559.739 499.634 559.397 499.316 559.2 498.909C559.004 498.502 558.969 498.036 559.101 497.604C559.233 497.172 559.524 496.806 559.914 496.578C560.304 496.35 560.766 496.278 561.207 496.376C565.555 497.372 569.931 498.245 574.328 498.994C574.56 499.034 574.782 499.119 574.981 499.245C575.18 499.371 575.352 499.534 575.488 499.727C575.623 499.919 575.72 500.136 575.772 500.366C575.823 500.595 575.829 500.833 575.789 501.065C575.707 501.533 575.444 501.95 575.056 502.224C574.668 502.499 574.188 502.609 573.719 502.53C569.254 501.768 564.811 500.883 560.395 499.875C560.316 499.852 560.236 499.83 560.159 499.8V499.8ZM586.709 504.382C586.302 504.224 585.966 503.923 585.765 503.535C585.564 503.147 585.512 502.7 585.617 502.276C585.722 501.852 585.978 501.481 586.338 501.233C586.697 500.984 587.134 500.875 587.568 500.926C592.01 501.455 596.485 501.876 600.877 502.177C601.35 502.211 601.791 502.43 602.104 502.788C602.416 503.145 602.574 503.611 602.544 504.085C602.512 504.56 602.293 505.002 601.936 505.315C601.578 505.629 601.111 505.788 600.636 505.757C596.179 505.456 591.643 505.027 587.141 504.491C586.994 504.469 586.849 504.433 586.709 504.382V504.382ZM613.557 506.176C613.166 506.024 612.84 505.739 612.637 505.371C612.434 505.004 612.367 504.577 612.446 504.164C612.526 503.752 612.748 503.381 613.073 503.115C613.399 502.85 613.807 502.707 614.227 502.712C618.677 502.769 623.128 502.693 627.574 502.483C627.809 502.472 628.044 502.507 628.265 502.587C628.487 502.666 628.69 502.789 628.864 502.947C629.038 503.106 629.179 503.297 629.279 503.51C629.379 503.723 629.435 503.954 629.446 504.189C629.492 505.179 628.729 506.019 627.74 506.067C623.31 506.282 618.749 506.358 614.178 506.294C613.965 506.296 613.754 506.256 613.557 506.176V506.176ZM640.421 504.875C640.114 504.758 639.846 504.558 639.646 504.298C639.445 504.038 639.32 503.728 639.285 503.402C639.258 503.168 639.278 502.931 639.343 502.705C639.408 502.479 639.516 502.268 639.663 502.083C639.81 501.899 639.991 501.746 640.197 501.632C640.403 501.518 640.629 501.445 640.863 501.419C645.344 500.903 649.773 500.229 654.03 499.418C654.261 499.373 654.499 499.374 654.73 499.422C654.961 499.469 655.18 499.562 655.374 499.695C655.569 499.828 655.735 499.998 655.864 500.195C655.992 500.393 656.08 500.614 656.122 500.846C656.212 501.313 656.112 501.796 655.846 502.19C655.579 502.584 655.167 502.855 654.7 502.945C650.249 503.792 645.768 504.475 641.267 504.99C640.98 505.015 640.691 504.975 640.421 504.875V504.875ZM666.812 499.783C666.55 499.684 666.315 499.524 666.127 499.316C665.939 499.109 665.802 498.859 665.729 498.589C665.602 498.13 665.663 497.639 665.897 497.224C666.131 496.809 666.52 496.504 666.979 496.375C671.243 495.183 675.449 493.791 679.582 492.204C680.026 492.035 680.519 492.048 680.953 492.242C681.387 492.435 681.727 492.793 681.898 493.236C682.25 494.159 681.788 495.196 680.864 495.557C676.626 497.184 672.314 498.61 667.941 499.83C667.57 499.938 667.173 499.922 666.812 499.783V499.783ZM691.844 490.096C691.429 489.938 691.089 489.63 690.891 489.233C690.676 488.808 690.638 488.315 690.786 487.863C690.934 487.41 691.255 487.035 691.68 486.819C695.61 484.813 699.424 482.588 703.105 480.155C703.301 480.025 703.521 479.934 703.752 479.889C703.984 479.844 704.221 479.845 704.452 479.891C704.683 479.938 704.903 480.03 705.098 480.161C705.293 480.293 705.461 480.462 705.591 480.658C705.853 481.055 705.947 481.541 705.853 482.007C705.758 482.474 705.482 482.884 705.086 483.148C701.292 485.659 697.36 487.954 693.308 490.022C693.082 490.134 692.835 490.198 692.584 490.211C692.332 490.224 692.08 490.184 691.844 490.096V490.096ZM714.167 475.256C713.877 475.144 713.621 474.958 713.425 474.717C713.229 474.475 713.098 474.187 713.047 473.881C712.995 473.574 713.024 473.259 713.131 472.967C713.238 472.675 713.419 472.416 713.656 472.215C717.008 469.357 720.183 466.299 723.165 463.057C723.324 462.884 723.516 462.743 723.73 462.644C723.943 462.545 724.174 462.489 724.409 462.479C724.645 462.469 724.879 462.505 725.101 462.586C725.322 462.667 725.525 462.791 725.698 462.95C725.871 463.109 726.012 463.301 726.111 463.515C726.21 463.728 726.266 463.959 726.276 464.194C726.286 464.43 726.25 464.664 726.169 464.886C726.088 465.107 725.964 465.31 725.805 465.483C722.725 468.835 719.443 471.995 715.978 474.946C715.448 475.386 714.754 475.481 714.167 475.256ZM732.309 455.543C732.053 455.445 731.823 455.289 731.636 455.087C731.45 454.886 731.312 454.644 731.234 454.381C731.156 454.118 731.139 453.841 731.185 453.57C731.231 453.3 731.338 453.043 731.499 452.821C734.073 449.242 736.446 445.524 738.608 441.682C738.723 441.476 738.877 441.295 739.062 441.149C739.248 441.003 739.46 440.896 739.687 440.833C739.914 440.769 740.152 440.752 740.386 440.781C740.62 440.81 740.845 440.886 741.05 441.003C741.255 441.119 741.436 441.274 741.582 441.46C741.727 441.645 741.835 441.858 741.898 442.085C741.961 442.312 741.979 442.55 741.951 442.784C741.922 443.018 741.848 443.245 741.732 443.45C739.504 447.41 737.058 451.243 734.404 454.931C734.168 455.246 733.837 455.477 733.459 455.587C733.081 455.697 732.677 455.682 732.309 455.543ZM745.661 432.258L745.542 432.212C745.328 432.113 745.136 431.973 744.977 431.799C744.818 431.626 744.694 431.422 744.614 431.201C744.533 430.98 744.497 430.745 744.507 430.51C744.518 430.274 744.574 430.043 744.674 429.83C746.54 425.811 748.229 421.712 749.735 417.545C749.81 417.318 749.93 417.109 750.088 416.93C750.245 416.75 750.437 416.604 750.652 416.499C750.866 416.395 751.1 416.335 751.338 416.322C751.577 416.309 751.815 416.344 752.04 416.425C752.265 416.506 752.471 416.63 752.647 416.792C752.823 416.954 752.964 417.149 753.064 417.366C753.163 417.583 753.218 417.818 753.225 418.057C753.232 418.296 753.191 418.533 753.105 418.756C752.766 419.703 752.403 420.672 752.035 421.632C750.771 424.915 749.398 428.155 747.919 431.347C747.726 431.755 747.386 432.074 746.968 432.243C746.55 432.412 746.083 432.417 745.661 432.258ZM754.643 406.936C754.238 406.779 753.904 406.48 753.702 406.095C753.5 405.711 753.444 405.266 753.544 404.843C754.6 400.434 755.356 396.054 755.788 391.832C755.836 391.359 756.07 390.925 756.437 390.625C756.805 390.324 757.277 390.182 757.75 390.229C757.984 390.253 758.211 390.324 758.418 390.436C758.625 390.548 758.808 390.7 758.956 390.883C759.104 391.066 759.215 391.276 759.281 391.502C759.348 391.727 759.37 391.964 759.345 392.198C758.892 396.582 758.11 401.112 757.019 405.677C756.908 406.139 756.618 406.539 756.213 406.787C755.808 407.036 755.32 407.114 754.858 407.003C754.793 406.985 754.713 406.963 754.643 406.936V406.936ZM757.269 380.264C756.947 380.139 756.668 379.924 756.465 379.646C756.262 379.367 756.143 379.035 756.123 378.691C755.868 374.23 755.22 369.874 754.186 365.749C754.07 365.288 754.141 364.799 754.385 364.391C754.629 363.982 755.025 363.688 755.486 363.571C755.714 363.513 755.951 363.501 756.184 363.535C756.417 363.569 756.64 363.649 756.842 363.769C757.044 363.89 757.22 364.049 757.36 364.238C757.501 364.427 757.602 364.642 757.659 364.87C758.747 369.209 759.431 373.787 759.702 378.479C759.716 378.714 759.683 378.95 759.605 379.172C759.528 379.394 759.407 379.599 759.25 379.775C759.093 379.951 758.904 380.094 758.691 380.197C758.479 380.299 758.249 380.359 758.014 380.372C757.75 380.392 757.5 380.352 757.269 380.264V380.264ZM703.144 357.286C702.719 357.123 702.372 356.803 702.175 356.393C701.977 355.982 701.944 355.512 702.081 355.078C702.223 354.624 702.539 354.244 702.961 354.023C703.382 353.802 703.875 353.757 704.329 353.899C708.295 355.145 712.688 355.8 717.031 355.793C717.5 355.805 717.946 355.999 718.273 356.335C718.6 356.671 718.783 357.122 718.782 357.591C718.782 358.06 718.597 358.51 718.269 358.845C717.941 359.18 717.495 359.374 717.026 359.384C712.323 359.39 707.561 358.673 703.248 357.326C703.216 357.306 703.172 357.297 703.144 357.286ZM691.464 350.865C691.252 350.782 691.056 350.66 690.887 350.507C686.485 346.401 684.767 341.507 686.06 336.731C686.184 336.273 686.484 335.882 686.896 335.645C687.307 335.408 687.795 335.344 688.254 335.466C688.481 335.528 688.694 335.634 688.88 335.778C689.066 335.922 689.222 336.101 689.339 336.306C689.456 336.51 689.531 336.736 689.561 336.969C689.59 337.203 689.573 337.44 689.511 337.667C688.323 342.066 690.927 345.652 693.319 347.887C693.623 348.169 693.819 348.549 693.874 348.96C693.929 349.371 693.839 349.789 693.619 350.141C693.4 350.493 693.065 350.758 692.672 350.89C692.278 351.022 691.851 351.013 691.464 350.865V350.865ZM729.618 357.25C729.364 357.154 729.136 357.001 728.951 356.803C728.765 356.605 728.628 356.367 728.548 356.108C728.407 355.654 728.452 355.162 728.672 354.741C728.892 354.32 729.27 354.002 729.723 353.858C733.824 352.575 737.689 350.633 741.166 348.109C741.356 347.97 741.572 347.87 741.801 347.815C742.03 347.76 742.267 347.751 742.5 347.787C742.733 347.824 742.956 347.907 743.156 348.03C743.357 348.153 743.531 348.315 743.669 348.506C743.807 348.697 743.907 348.913 743.962 349.142C744.017 349.372 744.026 349.609 743.989 349.842C743.952 350.075 743.869 350.298 743.746 350.499C743.622 350.7 743.461 350.875 743.27 351.013C739.48 353.768 735.265 355.885 730.793 357.282C730.398 357.412 729.982 357.389 729.618 357.25ZM750.671 354.388C750.251 354.227 749.907 353.915 749.707 353.512C747.787 349.616 745.413 345.96 742.636 342.621C742.485 342.44 742.371 342.232 742.301 342.007C742.231 341.782 742.206 341.546 742.227 341.311C742.249 341.077 742.316 340.849 742.426 340.641C742.535 340.432 742.685 340.247 742.866 340.097C743.046 339.946 743.255 339.833 743.479 339.763C743.703 339.692 743.939 339.667 744.173 339.688C744.407 339.709 744.634 339.776 744.843 339.885C745.051 339.994 745.235 340.143 745.386 340.323C748.34 343.882 750.867 347.774 752.916 351.921C753.355 352.805 752.996 353.889 752.106 354.327C751.636 354.549 751.119 354.56 750.671 354.388ZM695.702 328.901C695.387 328.779 695.113 328.57 694.912 328.299C694.71 328.028 694.588 327.706 694.561 327.37C694.533 327.033 694.601 326.696 694.756 326.396C694.912 326.096 695.148 325.846 695.439 325.674C699.415 323.356 704.033 322.128 709.164 322.029C709.399 322.024 709.633 322.066 709.852 322.152C710.071 322.239 710.271 322.367 710.44 322.53C710.609 322.694 710.744 322.889 710.838 323.105C710.931 323.321 710.981 323.553 710.985 323.788C710.989 324.023 710.947 324.257 710.861 324.476C710.775 324.695 710.647 324.895 710.484 325.065C710.32 325.234 710.125 325.37 709.909 325.464C709.694 325.558 709.461 325.609 709.226 325.613C704.717 325.701 700.686 326.76 697.245 328.769C697.014 328.906 696.756 328.989 696.489 329.012C696.221 329.035 695.953 328.997 695.702 328.901V328.901ZM751.029 341.755C750.881 341.696 750.741 341.621 750.61 341.53C750.419 341.391 750.258 341.215 750.136 341.013C750.013 340.812 749.932 340.588 749.896 340.354C749.86 340.121 749.871 339.883 749.927 339.654C749.984 339.425 750.085 339.209 750.225 339.019C752.665 335.687 754.757 331.859 756.435 327.648C756.61 327.211 756.95 326.86 757.381 326.67C757.812 326.481 758.301 326.468 758.741 326.635L758.762 326.643C759.203 326.819 759.557 327.164 759.744 327.601C759.932 328.037 759.938 328.531 759.762 328.972C757.967 333.467 755.732 337.562 753.11 341.138C752.879 341.455 752.55 341.686 752.174 341.798C751.798 341.909 751.396 341.894 751.029 341.755V341.755ZM733.573 333.996C733.43 333.939 733.294 333.865 733.168 333.776C729.571 331.192 725.721 329.162 721.771 327.769C721.323 327.61 720.957 327.279 720.753 326.849C720.549 326.42 720.524 325.927 720.683 325.479C720.761 325.257 720.882 325.052 721.04 324.877C721.197 324.702 721.388 324.559 721.6 324.458C721.813 324.356 722.043 324.298 722.279 324.286C722.514 324.274 722.749 324.308 722.971 324.387C727.238 325.894 731.396 328.082 735.262 330.866C736.066 331.447 736.249 332.562 735.674 333.37C735.184 334.042 734.315 334.28 733.573 333.996V333.996ZM761.188 317.069C760.795 316.917 760.468 316.632 760.264 316.263C760.061 315.894 759.994 315.464 760.076 315.051C760.871 310.968 761.408 306.553 761.667 301.942C761.695 301.467 761.909 301.022 762.264 300.705C762.618 300.387 763.084 300.223 763.559 300.248C764.034 300.276 764.478 300.49 764.795 300.845C765.112 301.2 765.274 301.666 765.248 302.141C764.982 306.918 764.426 311.487 763.593 315.732C763.503 316.199 763.231 316.611 762.837 316.877C762.443 317.144 761.959 317.243 761.492 317.153C761.388 317.136 761.286 317.108 761.188 317.069V317.069ZM762.85 290.276C762.525 290.151 762.244 289.934 762.04 289.652C761.836 289.37 761.719 289.035 761.702 288.687C761.494 284.254 761.111 279.83 760.552 275.427C760.494 274.955 760.625 274.479 760.916 274.103C761.207 273.727 761.635 273.481 762.107 273.419C762.579 273.361 763.054 273.492 763.43 273.784C763.805 274.075 764.05 274.504 764.11 274.975C764.688 279.64 765.086 284.189 765.281 288.515C765.295 288.812 765.234 289.108 765.105 289.377C764.975 289.645 764.782 289.877 764.54 290.051C764.299 290.226 764.019 290.338 763.724 290.377C763.429 290.416 763.128 290.382 762.85 290.276V290.276ZM759.323 263.648C759.052 263.545 758.81 263.377 758.618 263.159C758.427 262.942 758.291 262.681 758.222 262.399C757.166 258.124 755.838 253.921 754.245 249.816C754.072 249.372 754.082 248.878 754.273 248.442C754.465 248.006 754.821 247.663 755.265 247.49C755.484 247.404 755.718 247.362 755.953 247.367C756.189 247.371 756.421 247.422 756.637 247.517C756.852 247.611 757.047 247.748 757.21 247.918C757.372 248.088 757.5 248.288 757.585 248.508C759.236 252.759 760.611 257.112 761.703 261.539C761.781 261.857 761.77 262.19 761.672 262.502C761.575 262.814 761.394 263.094 761.149 263.311C760.904 263.528 760.604 263.674 760.283 263.733C759.961 263.793 759.629 263.763 759.323 263.648V263.648ZM749.649 238.66C749.248 238.506 748.916 238.213 748.714 237.835C746.618 233.952 744.305 230.189 741.788 226.565C741.653 226.372 741.558 226.154 741.508 225.924C741.458 225.693 741.454 225.456 741.496 225.224C741.538 224.992 741.625 224.771 741.752 224.573C741.88 224.375 742.045 224.204 742.239 224.07C743.049 223.504 744.169 223.7 744.73 224.518C747.326 228.252 749.71 232.131 751.868 236.134C751.98 236.341 752.05 236.569 752.074 236.803C752.098 237.038 752.075 237.274 752.007 237.5C751.94 237.726 751.828 237.936 751.679 238.118C751.53 238.301 751.346 238.452 751.138 238.563C750.912 238.686 750.661 238.758 750.404 238.775C750.147 238.792 749.889 238.752 749.649 238.66ZM476.428 118.919C476.091 118.79 475.801 118.562 475.596 118.266C475.391 117.969 475.279 117.618 475.277 117.257C475.274 116.782 475.459 116.325 475.792 115.986C476.125 115.646 476.578 115.452 477.053 115.446C480.939 115.416 485.499 115.573 490.622 115.913C490.857 115.929 491.086 115.991 491.297 116.095C491.508 116.199 491.696 116.344 491.851 116.522C492.006 116.699 492.124 116.905 492.199 117.128C492.274 117.351 492.305 117.586 492.289 117.821C492.257 118.295 492.038 118.738 491.68 119.051C491.323 119.365 490.856 119.523 490.381 119.493C485.35 119.164 480.87 119.007 477.079 119.041C476.856 119.041 476.635 119 476.428 118.919V118.919ZM734.391 216.586C734.112 216.479 733.865 216.304 733.672 216.077C730.792 212.715 727.765 209.482 724.6 206.387C724.432 206.222 724.298 206.026 724.206 205.81C724.113 205.594 724.065 205.361 724.063 205.126C724.06 204.891 724.105 204.657 724.193 204.439C724.281 204.221 724.411 204.023 724.576 203.855C724.74 203.686 724.935 203.552 725.151 203.459C725.367 203.366 725.6 203.317 725.835 203.315C726.07 203.312 726.303 203.356 726.521 203.444C726.739 203.532 726.938 203.662 727.105 203.827C730.343 206.998 733.442 210.307 736.395 213.745C736.654 214.048 736.804 214.429 736.823 214.827C736.841 215.225 736.726 215.618 736.497 215.944C736.267 216.27 735.935 216.51 735.554 216.626C735.173 216.742 734.763 216.728 734.391 216.586ZM503.257 120.554C502.888 120.412 502.576 120.152 502.37 119.814C502.165 119.476 502.077 119.08 502.12 118.687C502.144 118.453 502.215 118.226 502.327 118.019C502.44 117.812 502.592 117.629 502.775 117.481C502.959 117.333 503.17 117.223 503.396 117.157C503.622 117.091 503.859 117.071 504.093 117.097C508.4 117.558 512.904 118.111 517.487 118.75C517.72 118.783 517.945 118.861 518.148 118.98C518.351 119.099 518.528 119.258 518.67 119.446C518.812 119.634 518.915 119.848 518.974 120.076C519.033 120.303 519.047 120.541 519.014 120.774C518.982 121.007 518.904 121.232 518.785 121.436C518.666 121.639 518.508 121.817 518.32 121.959C518.132 122.102 517.918 122.206 517.69 122.265C517.462 122.325 517.224 122.338 516.991 122.306C512.57 121.692 508.14 121.146 503.702 120.668C503.55 120.649 503.4 120.61 503.257 120.554V120.554ZM715.258 197.76C715.072 197.689 714.9 197.588 714.747 197.46C711.344 194.609 707.849 191.87 704.267 189.248C703.884 188.967 703.628 188.546 703.555 188.076C703.483 187.607 703.599 187.128 703.879 186.744C704.159 186.361 704.579 186.104 705.048 186.03C705.517 185.957 705.995 186.073 706.379 186.352C710.028 189.02 713.587 191.807 717.052 194.71C717.377 194.983 717.595 195.362 717.667 195.78C717.739 196.198 717.66 196.628 717.445 196.994C717.23 197.36 716.892 197.637 716.492 197.778C716.091 197.918 715.654 197.912 715.258 197.76V197.76ZM529.886 124.217C529.471 124.058 529.13 123.751 528.929 123.354C528.728 122.958 528.681 122.502 528.798 122.073C528.914 121.644 529.186 121.274 529.559 121.034C529.933 120.794 530.383 120.701 530.821 120.774C535.197 121.495 539.664 122.291 544.096 123.137C544.563 123.228 544.974 123.499 545.241 123.892C545.509 124.285 545.609 124.768 545.522 125.235C545.432 125.702 545.161 126.115 544.769 126.383C544.376 126.651 543.893 126.753 543.425 126.666C539.037 125.832 534.639 125.049 530.232 124.318C530.114 124.295 529.998 124.261 529.886 124.217V124.217ZM556.288 129.248C555.888 129.095 555.556 128.803 555.353 128.426C555.15 128.049 555.089 127.611 555.182 127.193C555.283 126.728 555.564 126.322 555.963 126.064C556.363 125.806 556.849 125.717 557.314 125.816C561.702 126.758 566.122 127.761 570.462 128.806C570.691 128.86 570.908 128.959 571.099 129.097C571.29 129.235 571.452 129.41 571.574 129.611C571.697 129.812 571.779 130.036 571.815 130.269C571.851 130.501 571.84 130.739 571.783 130.968C571.672 131.43 571.383 131.829 570.977 132.078C570.572 132.327 570.085 132.404 569.623 132.294C565.279 131.252 560.924 130.261 556.557 129.32C556.465 129.307 556.375 129.283 556.288 129.248ZM693.611 181.869C693.497 181.824 693.386 181.768 693.282 181.703C689.543 179.293 685.746 176.975 681.894 174.751C681.483 174.513 681.182 174.122 681.059 173.664C680.935 173.205 680.999 172.716 681.235 172.304C681.352 172.099 681.509 171.92 681.696 171.776C681.882 171.632 682.096 171.527 682.323 171.465C682.551 171.404 682.789 171.388 683.023 171.419C683.256 171.449 683.482 171.526 683.686 171.644C687.594 173.893 691.444 176.242 695.231 178.689C695.63 178.947 695.91 179.353 696.01 179.818C696.11 180.283 696.022 180.768 695.765 181.168C695.539 181.512 695.203 181.769 694.811 181.897C694.42 182.024 693.996 182.014 693.611 181.869V181.869ZM582.423 135.519C582.01 135.359 581.671 135.053 581.47 134.659C581.269 134.264 581.22 133.81 581.333 133.382C581.455 132.923 581.753 132.531 582.164 132.292C582.574 132.053 583.063 131.986 583.522 132.107C587.866 133.258 592.195 134.465 596.509 135.726C596.96 135.865 597.338 136.176 597.562 136.591C597.785 137.007 597.836 137.494 597.704 137.947C597.571 138.4 597.266 138.782 596.853 139.012C596.441 139.241 595.955 139.299 595.5 139.173C591.215 137.924 586.914 136.725 582.6 135.579C582.544 135.558 582.479 135.541 582.423 135.519V135.519ZM670.345 168.428C670.282 168.405 670.219 168.378 670.159 168.348C666.202 166.301 662.203 164.334 658.166 162.45C657.952 162.35 657.76 162.21 657.601 162.036C657.442 161.861 657.32 161.658 657.24 161.436C657.16 161.214 657.125 160.979 657.137 160.743C657.148 160.508 657.207 160.277 657.308 160.064C657.407 159.85 657.548 159.658 657.721 159.499C657.895 159.339 658.098 159.216 658.32 159.136C658.542 159.055 658.777 159.02 659.013 159.031C659.248 159.042 659.479 159.1 659.692 159.201C663.77 161.111 667.81 163.099 671.812 165.164C672.234 165.383 672.551 165.761 672.695 166.213C672.839 166.666 672.797 167.158 672.579 167.58C672.376 167.971 672.036 168.274 671.624 168.43C671.212 168.587 670.756 168.586 670.345 168.428V168.428ZM608.209 143.055C607.781 142.89 607.433 142.568 607.235 142.154C607.038 141.741 607.005 141.267 607.145 140.831C607.29 140.379 607.608 140.002 608.03 139.784C608.451 139.566 608.942 139.524 609.395 139.668C613.675 141.042 617.937 142.474 622.178 143.964C622.624 144.127 622.989 144.458 623.194 144.887C623.399 145.316 623.427 145.808 623.273 146.257C623.116 146.706 622.788 147.074 622.359 147.28C621.931 147.487 621.439 147.515 620.99 147.359C616.78 145.876 612.549 144.455 608.298 143.097C608.272 143.079 608.244 143.069 608.209 143.055ZM646.014 157.03L645.951 157.005C641.846 155.262 637.711 153.589 633.549 151.987C633.105 151.815 632.748 151.474 632.556 151.038C632.363 150.603 632.351 150.109 632.522 149.665C632.606 149.446 632.733 149.245 632.894 149.075C633.056 148.904 633.25 148.767 633.464 148.672C633.679 148.577 633.91 148.525 634.145 148.519C634.38 148.513 634.614 148.553 634.833 148.638L634.84 148.64C639.039 150.259 643.209 151.949 647.351 153.708C647.567 153.8 647.764 153.933 647.928 154.101C648.093 154.269 648.223 154.468 648.311 154.686C648.399 154.904 648.442 155.137 648.44 155.372C648.437 155.608 648.389 155.84 648.296 156.056C648.116 156.482 647.777 156.822 647.352 157.004C646.926 157.186 646.446 157.195 646.014 157.03V157.03Z" fill="#E1E4E5"/>
<path id="Vector_5" fill-rule="evenodd" clip-rule="evenodd" d="M428.151 210.02C422.997 203.888 410.782 202.815 402.794 210.733C397.635 215.848 396.788 221.669 397.812 225.729C397.862 225.929 397.907 226.131 397.946 226.335L419.439 338.68C424.437 361.574 442.622 379.65 465.833 384.628L579.163 405.936L579.193 405.942L579.266 405.956C585.151 407.123 591.428 404.72 595.083 401.096C602.598 393.646 602.598 383.018 595.083 375.569L428.809 210.733C428.579 210.505 428.359 210.267 428.151 210.02ZM376.968 214.459L294.626 296.801C275.463 315.964 275.463 345.215 294.626 364.378L424.508 494.26C428.686 498.439 435.46 498.439 439.639 494.26C439.764 494.135 439.885 494.008 440.002 493.879L449.781 503.552L457.77 497.639L504.929 501.406L510.167 495.587C514.371 499.22 520.73 499.041 524.721 495.05L593.853 425.918C588.056 427.695 581.654 428.234 575.162 426.957L461.751 405.635C461.668 405.619 461.586 405.603 461.504 405.585C430.04 398.901 405.265 374.391 398.497 343.081C398.479 342.998 398.462 342.915 398.446 342.831L376.981 230.631C375.742 225.496 375.693 219.948 376.968 214.459V214.459Z" fill="#CCCCCC"/>
<path id="Vector_6" d="M453.042 116.221L453.3 128.347L387.926 133.236L453.042 116.221V116.221Z" fill="white"/>
<path id="Vector_7" d="M451.908 141.909L443.136 150.535L390.865 132.967L451.908 141.909Z" fill="#99DE9F"/>
<path id="Vector_8" d="M387.926 133.236L482.501 152.101L460.785 126.555L387.926 133.236V133.236Z" fill="#99DE9F"/>
<path id="Vector_9" d="M453.043 116.222L387.927 133.237L440.101 98.95L453.043 116.222V116.222ZM691.214 506.079C669.976 506.475 664.355 508.154 642.308 507.463C631.807 507.561 620.598 507.265 610.333 507.068C605.452 505.783 596.869 507.068 591.08 505.981L588.858 506.672C586.873 506.277 584.55 506.079 582.531 506.475L582.665 506.672C579.703 506.178 576.338 506.475 574.89 506.178L575.025 506.376L571.423 506.277L572.029 506.573C566.846 505.981 561.528 505.981 556.816 506.178L557.219 505.289C547.156 506.277 543.487 504.498 534.433 505.585L534.567 505.783C523.09 503.51 516.459 507.364 504.645 505.19C506.126 505.487 504.005 505.585 504.14 505.882C498.687 505.684 492.898 505.487 492.797 503.807C488.825 503.807 489.566 504.301 489.061 504.993C489.095 504.301 485.628 503.906 482.531 503.906L483.945 504.202L475.059 503.906L476.809 502.522C472.097 502.918 475.598 504.202 471.121 503.906L471.188 502.72C464.692 502.918 460.855 504.696 454.561 505.585C428.375 506.079 400.236 503.115 375.901 505.19L374.824 506.079C374.353 507.364 368.092 504.202 367.183 505.388L364.356 504.795C363.548 504.992 361.865 505.289 363.279 505.585C360.654 505.684 360.586 505.388 358.702 505.091L355.874 505.882C345.541 506.475 336.756 504.993 325.884 505.289C312.825 506.87 288.221 505.388 274.05 504.597C254.125 502.72 230.967 507.759 210.57 505.585C209.897 505.783 208.181 505.388 208.214 505.19L189.534 505.388C189.534 505.388 99.026 505.882 167.79 495.31L167.319 495.013C177.551 494.321 183.98 494.223 191.015 495.606C192.126 493.926 199.396 495.408 201.786 494.914L201.55 494.815C207.777 496.1 214.374 493.729 220.399 494.914C220.163 494.815 220.029 494.321 218.649 494.321C223.024 494.519 229.015 494.914 229.352 493.926C239.82 494.223 254.394 493.729 261.092 495.31L260.621 495.013C264.424 496.1 265.568 495.211 269.843 495.705C270.079 495.606 270.382 495.507 270.314 495.408C274.488 496.495 282.465 495.606 285.797 496.001L285.999 495.31L294.279 495.507L291.183 495.606C292.26 497.384 297.443 494.42 303.434 495.606C309.055 495.408 314.845 499.361 320.667 498.471C323.461 499.361 318.21 497.088 322.384 497.78C322.519 496.792 320.432 497.187 321.509 496.396C325.582 496.89 328.207 495.408 333.256 496.1L333.458 495.408C340.021 496.792 345.844 494.42 350.22 495.705C356.985 496.298 354.763 493.531 361.832 494.914L364.592 493.926C367.621 493.729 366.746 495.112 370.112 494.618C369.91 494.025 374.353 494.124 372.367 493.531C379.94 492.543 387.749 494.914 397.745 493.235C399.9 494.42 404.948 493.729 406.564 494.618C406.833 494.124 416.628 494.519 411.007 493.333C410.536 493.234 409.661 493.235 409.728 493.432L409.055 492.74C414.743 491.357 419.388 493.531 425.042 493.235C423.36 493.432 421.138 493.432 422.619 493.926L427.87 493.827L426.793 493.235L434.601 492.839L433.524 493.63C437.328 493.235 438.674 491.95 442.983 493.037C444.935 493.63 439.381 494.025 443.386 494.321C448.502 493.827 456.143 493.037 462.639 492.839C462.033 493.729 463.783 493.63 465.601 493.827L465.803 493.136C472.703 494.124 468.327 491.555 475.194 492.345L474.588 491.851L476.405 493.432C482.599 494.914 479.738 491.95 486.604 493.926C483.878 493.827 485.325 495.507 488.657 495.211L487.816 494.519C489.667 494.717 490.273 495.013 491.518 494.815C490.407 494.42 490.946 493.827 493.672 493.926L491.855 493.037L497.004 494.321C500.976 493.531 507.27 494.519 508.92 493.531C508.92 493.531 517.469 493.037 519.421 494.124C517.704 493.432 522.417 493.136 521.07 492.345C523.292 493.136 529.821 493.729 532.447 492.938L531.942 492.839C541.636 491.95 548.502 494.025 557.186 492.938C556.782 493.827 561.393 493.333 560.249 494.42C569.236 495.507 576.64 492.148 579.905 495.606C584.012 495.804 584.752 494.815 586.873 494.618L585.897 494.42C593.571 494.717 595.792 494.717 601.48 494.618C604.308 494.914 604.779 496.495 609.861 496.1C608.212 495.507 610.299 495.606 612.184 495.606C610.972 495.507 610.602 495.31 613.093 494.815C613.429 495.013 614.001 495.112 614.506 495.211C614.54 495.211 614.641 495.112 614.574 495.013C617.738 495.211 617.199 495.408 615.718 495.507C615.785 495.606 615.684 495.705 615.213 495.902C618.512 495.112 624.402 496.001 624.806 494.914C634.365 495.211 641.197 496.298 649.141 496.693C650.05 496.1 648.165 495.606 645.876 495.408L651.531 495.606C651.497 494.815 648.299 495.112 646.549 495.013C653.281 493.729 660.416 496.298 668.293 495.112L669.942 495.705L670.413 495.606C670.379 495.902 672.163 496.396 673.308 496.495C674.418 495.804 673.24 494.914 677.145 494.914C680.241 494.223 685.896 495.211 689.935 495.606C687.747 495.705 688.454 496.1 689.396 496.396C691.349 496.396 692.459 495.705 693.974 496.001L694.176 495.112C693.402 496.001 699.258 496.1 699.999 496.396C701.11 495.705 696.97 495.804 696.498 495.31C704.307 495.408 700.403 495.309 708.245 495.408C712.419 496.1 707.471 496.298 709.491 497.088C713.159 497.286 716.761 497.878 721.002 497.384L719.655 498.175C726.589 498.866 730.729 498.768 735.374 497.878C786.939 504.597 746.246 507.068 746.246 507.068C725.849 509.142 715.381 506.771 691.214 506.079V506.079Z" fill="#99DE9F"/>
<path id="Vector_10" d="M665.333 307.733C660.89 310.298 655.209 308.775 652.644 304.333C650.079 299.89 651.601 294.209 656.044 291.644C660.487 289.078 666.168 290.601 668.733 295.044C671.298 299.486 669.776 305.168 665.333 307.733Z" fill="#83D39D"/>
<path id="Vector_11" d="M223 416C229.075 416 234 420.925 234 427C234 433.075 229.075 438 223 438C216.925 438 212 433.075 212 427C212 420.925 216.925 416 223 416Z" fill="#83D39D"/>
<path id="Vector_12" d="M322.489 203C318.352 203 314.999 206.353 314.999 210.49C314.999 214.627 318.352 217.98 322.489 217.98C326.626 217.98 329.979 214.627 329.979 210.49C329.979 206.353 326.626 203 322.489 203Z" fill="#E1E4E5"/>
<path id="Vector_13" d="M275.993 415.885C272.152 415.885 269.038 418.999 269.038 422.84C269.038 426.681 272.152 429.795 275.993 429.795C279.834 429.795 282.948 426.681 282.948 422.84C282.948 418.999 279.834 415.885 275.993 415.885Z" fill="#E1E4E5"/>
<path id="Vector_14" d="M178.628 300.332C174.787 300.332 171.673 303.446 171.673 307.287C171.673 311.128 174.787 314.242 178.628 314.242C182.469 314.242 185.583 311.128 185.583 307.287C185.583 303.446 182.469 300.332 178.628 300.332Z" fill="#E1E4E5"/>
<path id="Vector_15" d="M234.399 212.062C244.526 212.062 252.736 220.272 252.736 230.399C252.736 240.526 244.526 248.736 234.399 248.736C224.272 248.736 216.062 240.526 216.062 230.399C216.062 220.272 224.272 212.062 234.399 212.062Z" fill="#A0A0A0"/>
<path id="Vector_16" d="M523.363 199.863C526.731 203.231 532.191 203.231 535.559 199.863C538.927 196.495 538.927 191.035 535.559 187.667C532.191 184.299 526.731 184.299 523.363 187.667C519.995 191.035 519.995 196.495 523.363 199.863Z" fill="#E1E4E5"/>
<path id="Vector_17" d="M649.738 390.812C643.704 384.778 643.704 374.997 649.738 368.963C655.771 362.93 665.553 362.93 671.586 368.963C677.619 374.997 677.619 384.778 671.586 390.812C665.553 396.845 655.771 396.845 649.738 390.812Z" fill="#A0A0A0"/>
</g>
</g>
<defs>
<linearGradient id="paint0_linear_15_22" x1="234.592" y1="696.889" x2="725.036" y2="-54.788" gradientUnits="userSpaceOnUse">
<stop stop-color="white"/>
<stop offset="1" stop-color="#EEEEEE"/>
</linearGradient>
<linearGradient id="paint1_linear_15_22" x1="528.214" y1="316.165" x2="707.401" y2="141.219" gradientUnits="userSpaceOnUse">
<stop stop-color="white"/>
<stop offset="1" stop-color="#EEEEEE"/>
</linearGradient>
</defs>
</svg>
