<svg width="21" height="21" viewBox="0 0 21 21" fill="none" xmlns="http://www.w3.org/2000/svg">
<path d="M10.5 0C4.71333 0 0 4.71333 0 10.5C0 16.2867 4.71333 21 10.5 21C10.7567 21 10.9667 20.79 10.9667 20.5333C10.9667 20.2767 10.7567 20.0667 10.5 20.0667C5.22667 20.0667 0.933333 15.7733 0.933333 10.5C0.933333 5.22667 5.22667 0.933333 10.5 0.933333C15.7733 0.933333 20.0667 5.22667 20.0667 10.5V12.8333C20.0667 14 19.1333 14.9333 17.9667 14.9333C16.8 14.9333 15.8667 14 15.8667 12.8333V10.5C15.8667 7.53667 13.4633 5.13333 10.5 5.13333C7.53667 5.13333 5.13333 7.53667 5.13333 10.5C5.13333 13.4633 7.53667 15.8667 10.5 15.8667C12.39 15.8667 14.0233 14.8867 15.0033 13.44C15.26 14.8167 16.4967 15.8667 17.9667 15.8667C19.6467 15.8667 21 14.5133 21 12.8333V10.5C21 4.71333 16.2867 0 10.5 0ZM10.5 14.9333C8.05 14.9333 6.06667 12.95 6.06667 10.5C6.06667 8.05 8.05 6.06667 10.5 6.06667C12.95 6.06667 14.9333 8.05 14.9333 10.5C14.9333 12.95 12.95 14.9333 10.5 14.9333Z" fill="#303C42"/>
</svg>
