<svg width="68" height="68" viewBox="0 0 68 68" fill="none" xmlns="http://www.w3.org/2000/svg">
<g clip-path="url(#clip0_3_33)">
<path d="M58.4389 30.802C58.4389 37.776 55.6684 44.4644 50.7371 49.3957C45.8057 54.3271 39.1174 57.0975 32.1434 57.0975C28.6902 57.0975 25.271 56.4173 22.0807 55.0959C18.8903 53.7744 15.9915 51.8375 13.5497 49.3957C11.108 46.954 9.17105 44.0552 7.84958 40.8649C6.52811 37.6746 5.8479 34.2552 5.8479 30.802C5.8479 27.3489 6.52811 23.9295 7.84958 20.7392C9.17105 17.5488 11.108 14.65 13.5497 12.2082C15.9915 9.76645 18.8903 7.82956 22.0807 6.50808C25.271 5.18661 28.6902 4.50653 32.1434 4.50653C39.1174 4.50655 45.8057 7.27698 50.7371 12.2083C55.6684 17.1397 58.4389 23.828 58.4389 30.802Z" fill="#99DE9F"/>
<path fill-rule="evenodd" clip-rule="evenodd" d="M47.2042 34.3477C46.1113 34.5681 45.2825 35.1025 44.6615 35.8696L36.9303 44.9145C35.9842 45.9917 37.6235 47.3972 38.5436 46.2977L46.2958 37.2311C47.1278 36.2408 48.2535 36.1866 49.1437 36.7603C50.1369 37.4353 50.3819 38.7605 49.6809 39.7325C46.2676 44.1767 42.8547 48.6285 39.4427 53.0763C36.7705 56.5601 33.1635 59.1104 28.994 60.4938L12.7013 65.8989C11.356 66.3466 12.0275 68.3646 13.3728 67.9169L29.6598 62.5103C34.2237 60.9958 38.1986 58.1897 41.1287 54.3696L51.3785 41.0048C52.6021 39.4012 52.6888 36.6028 50.2638 34.9329C49.2287 34.2723 47.9517 34.1959 47.2038 34.347L47.2042 34.3477Z" fill="#3A3640"/>
<path fill-rule="evenodd" clip-rule="evenodd" d="M10.8704 48.0939L4.71705 52.7583C4.60133 52.8408 4.50331 52.9455 4.42878 53.0665C4.35425 53.1874 4.30481 53.3222 4.28322 53.4626C4.26164 53.603 4.26847 53.7464 4.30324 53.8841C4.33801 54.0219 4.39993 54.151 4.48556 54.2644C4.57119 54.3777 4.67876 54.4729 4.80176 54.544C4.92475 54.615 5.0608 54.6608 5.20176 54.6784C5.34272 54.696 5.4857 54.6851 5.62241 54.6464C5.75911 54.6078 5.88674 54.5422 5.99763 54.4535L12.1546 49.7869C13.7878 48.5498 15.7792 47.8783 17.8297 47.8714L25.5594 47.8463C25.7443 47.8455 25.9258 47.7966 26.086 47.7043L33.0047 43.7097C34.0267 43.1197 35.3092 43.4553 35.9161 44.4776L36.3572 45.2246C36.9535 46.2278 36.6257 47.4896 35.6224 48.0689L25.0843 54.153C24.9614 54.2217 24.8533 54.3141 24.7664 54.4249C24.6796 54.5357 24.6156 54.6626 24.5781 54.7984C24.5407 54.9341 24.5307 55.0759 24.5486 55.2156C24.5665 55.3553 24.6119 55.49 24.6823 55.6119C24.7527 55.7339 24.8467 55.8406 24.9587 55.9259C25.0707 56.0112 25.1985 56.0734 25.3348 56.1089C25.471 56.1444 25.613 56.1524 25.7524 56.1326C25.8918 56.1127 26.0258 56.0654 26.1468 55.9932L36.6848 49.9091C38.6935 48.7493 39.3697 46.1363 38.1848 44.1403L37.7381 43.3922C36.5514 41.3933 33.9537 40.7082 31.9422 41.8695L25.2679 45.723L17.8244 45.7458C15.3135 45.7537 12.8703 46.5777 10.8699 48.093L10.8704 48.0939Z" fill="#3A3640"/>
<path fill-rule="evenodd" clip-rule="evenodd" d="M20.8325 33.6168C21.9253 33.3963 22.7541 32.8619 23.3751 32.0949L31.1063 23.0499C32.0524 21.9728 30.4132 20.5672 29.4931 21.6667L21.7408 30.7334C20.9088 31.7236 19.7831 31.7779 18.8929 31.2041C17.8997 30.5291 17.6547 29.2039 18.3558 28.2319C21.769 23.7878 25.1819 19.336 28.5939 14.8882C31.2662 11.4043 34.8732 8.85402 39.0427 7.47065L55.3353 2.0656C56.6806 1.61788 56.0092 -0.400121 54.6638 0.0475948L38.3768 5.45418C33.8129 6.9686 29.838 9.7747 26.908 13.5949L16.6581 26.9597C15.4345 28.5632 15.3478 31.3617 17.7728 33.0315C18.8079 33.6921 20.085 33.7686 20.8329 33.6175L20.8325 33.6168Z" fill="#3A3640"/>
<path fill-rule="evenodd" clip-rule="evenodd" d="M57.1658 19.8702L63.3192 15.2057C63.4349 15.1233 63.5329 15.0185 63.6075 14.8976C63.682 14.7767 63.7314 14.6419 63.753 14.5015C63.7746 14.3611 63.7678 14.2177 63.733 14.0799C63.6982 13.9422 63.6363 13.813 63.5507 13.6997C63.4651 13.5863 63.3575 13.4912 63.2345 13.4201C63.1115 13.349 62.9755 13.3032 62.8345 13.2856C62.6935 13.268 62.5506 13.279 62.4138 13.3176C62.2771 13.3563 62.1495 13.4218 62.0386 13.5106L55.8816 18.1771C54.2485 19.4142 52.2571 20.0858 50.2066 20.0926L42.4769 20.1178C42.292 20.1185 42.1105 20.1674 41.9503 20.2598L35.0315 24.2543C34.0095 24.8444 32.7271 24.5088 32.1202 23.4864L31.6791 22.7395C31.0827 21.7363 31.4106 20.4744 32.4139 19.8952L42.952 13.811C43.0749 13.7424 43.1829 13.6499 43.2698 13.5392C43.3567 13.4284 43.4207 13.3014 43.4581 13.1657C43.4955 13.0299 43.5056 12.8881 43.4877 12.7485C43.4698 12.6088 43.4243 12.4741 43.3539 12.3521C43.2835 12.2302 43.1896 12.1235 43.0776 12.0382C42.9656 11.9528 42.8377 11.8906 42.7015 11.8551C42.5652 11.8197 42.4233 11.8116 42.2839 11.8315C42.1445 11.8513 42.0104 11.8987 41.8895 11.9708L31.3514 18.055C29.3427 19.2147 28.6666 21.8277 29.8515 23.8237L30.2981 24.5719C31.4848 26.5708 34.0825 27.2559 36.094 26.0945L42.7684 22.2411L50.2119 22.2182C52.7227 22.2103 55.166 21.3864 57.1664 19.871L57.1658 19.8702Z" fill="#3A3640"/>
</g>
<defs>
<clipPath id="clip0_3_33">
<rect width="68" height="68" fill="white"/>
</clipPath>
</defs>
</svg>
