<svg width="22" height="22" viewBox="0 0 22 22" fill="none" xmlns="http://www.w3.org/2000/svg">
<path d="M11 11.5C14.0376 11.5 16.5 9.03757 16.5 6C16.5 2.96243 14.0376 0.5 11 0.5C7.96243 0.5 5.5 2.96243 5.5 6C5.5 9.03757 7.96243 11.5 11 11.5Z" stroke="#303C42" stroke-linecap="round" stroke-linejoin="round"/>
<path d="M11 13.5C8.09695 13.5795 5.25211 14.3327 2.69 15.7C2.0307 16.0345 1.47701 16.5453 1.09042 17.1755C0.703827 17.8057 0.499457 18.5307 0.500001 19.27V20C0.500001 20.3978 0.658036 20.7794 0.939341 21.0607C1.22065 21.342 1.60218 21.5 2 21.5H20C20.3978 21.5 20.7794 21.342 21.0607 21.0607C21.342 20.7794 21.5 20.3978 21.5 20V19.27C21.5005 18.5307 21.2962 17.8057 20.9096 17.1755C20.523 16.5453 19.9693 16.0345 19.31 15.7C16.7479 14.3327 13.903 13.5795 11 13.5V13.5Z" stroke="#303C42" stroke-linecap="round" stroke-linejoin="round"/>
</svg>
